<svg width="476" height="43" viewBox="0 0 476 43" fill="none" xmlns="http://www.w3.org/2000/svg">
<g clip-path="url(#clip0_1_6510)">
<rect width="476" height="43" transform="matrix(1 0 1.85021e-05 1 0 0)" fill="#7F3A6A"/>
<path d="M19.5948 27L16.7625 15.16H19.2105L21.1147 23.512L23.3385 15.16H25.5145L27.7227 23.512L29.6265 15.16H32.0745L29.2428 27H26.8268L24.4266 18.648L22.0108 27H19.5948ZM35.8479 27.08C35.5919 27.08 35.2985 27.0533 34.9679 27C34.6372 26.9573 34.3172 26.8507 34.0079 26.68C33.7092 26.5093 33.4585 26.2533 33.2559 25.912C33.0639 25.56 32.9678 25.08 32.9678 24.472L32.9677 17.864C32.9677 17.3413 33.0477 16.904 33.2077 16.552C33.3677 16.2 33.581 15.9227 33.8477 15.72C34.1143 15.5173 34.4077 15.3733 34.7277 15.288C35.0477 15.2027 35.3623 15.16 35.6717 15.16C36.4717 15.16 37.1757 15.1707 37.7837 15.192C38.4023 15.2133 38.957 15.24 39.4477 15.272C39.9383 15.2933 40.3863 15.3253 40.7917 15.368L40.7917 17.352H36.3757C36.045 17.352 35.789 17.432 35.6077 17.592C35.4264 17.752 35.3357 17.9973 35.3357 18.328L35.3358 20.04L40.0238 20.168L40.0238 22.04L35.3358 22.168L35.3358 23.8C35.3358 24.0773 35.3785 24.296 35.4638 24.456C35.5598 24.6053 35.6825 24.712 35.8318 24.776C35.9918 24.8293 36.1572 24.856 36.3278 24.856H40.7918L40.7919 26.84C40.3225 26.8933 39.7999 26.936 39.2239 26.968C38.6585 27 38.0825 27.0267 37.4959 27.048C36.9199 27.0693 36.3705 27.08 35.8479 27.08ZM46.6398 27L46.6395 15.16H51.2955C52.4689 15.16 53.3222 15.432 53.8556 15.976C54.3996 16.5093 54.6716 17.272 54.6716 18.264C54.6716 18.7333 54.6023 19.1493 54.4636 19.512C54.3356 19.864 54.149 20.1573 53.9036 20.392C53.6583 20.616 53.365 20.7707 53.0236 20.856C53.2796 20.92 53.525 21.0213 53.7596 21.16C54.005 21.2987 54.2237 21.4853 54.4157 21.72C54.6183 21.9547 54.773 22.2427 54.8797 22.584C54.997 22.9147 55.0557 23.2987 55.0557 23.736C55.0557 24.536 54.9171 25.176 54.6397 25.656C54.3731 26.136 53.9731 26.4827 53.4397 26.696C52.9171 26.8987 52.2718 27 51.5038 27H46.6398ZM49.0077 24.872H51.4397C51.717 24.872 51.957 24.8187 52.1597 24.712C52.3624 24.6053 52.517 24.44 52.6237 24.216C52.741 23.992 52.7997 23.6933 52.7997 23.32C52.7997 23.0107 52.741 22.7493 52.6237 22.536C52.5063 22.3227 52.3463 22.1573 52.1437 22.04C51.941 21.9227 51.7063 21.864 51.4397 21.864H49.0077L49.0077 24.872ZM49.0076 20.04H51.3116C51.653 20.04 51.9196 19.9173 52.1116 19.672C52.3143 19.416 52.4156 19.0853 52.4156 18.68C52.4263 18.1573 52.3196 17.7947 52.0956 17.592C51.8716 17.3893 51.5996 17.288 51.2796 17.288H49.0076L49.0076 20.04ZM61.135 27.08C60.4843 27.08 59.8763 27.0267 59.311 26.92C58.7457 26.8027 58.2497 26.6053 57.823 26.328C57.407 26.04 57.0816 25.6453 56.847 25.144C56.623 24.632 56.5109 23.9813 56.5109 23.192L56.5108 15.16H58.8788L58.8789 23.176C58.8789 23.6133 58.9643 23.96 59.135 24.216C59.3163 24.472 59.5723 24.6587 59.903 24.776C60.2443 24.8933 60.655 24.952 61.135 24.952C61.6043 24.952 62.0043 24.8933 62.335 24.776C62.6763 24.6587 62.9323 24.472 63.103 24.216C63.2843 23.96 63.3749 23.6133 63.3749 23.176L63.3748 15.16H65.7588L65.7589 23.192C65.7589 23.9813 65.6416 24.632 65.407 25.144C65.1723 25.6453 64.847 26.04 64.431 26.328C64.015 26.6053 63.5243 26.8027 62.959 26.92C62.4043 27.0267 61.7963 27.08 61.135 27.08ZM70.4558 27L70.4557 23.416L66.8875 15.16H69.3515L71.6876 21L74.0075 15.16H76.3755L72.8237 23.416L72.8238 27H70.4558ZM84.2916 27L84.2914 17.288H81.0434L81.0434 15.16H89.9234L89.9234 17.288H86.6594L86.6596 27H84.2916ZM91.2023 27L91.202 15.16H96.098C96.5674 15.16 97.0047 15.2187 97.41 15.336C97.8154 15.4427 98.1727 15.6347 98.482 15.912C98.7914 16.1893 99.0314 16.5733 99.2021 17.064C99.3834 17.5547 99.4741 18.184 99.4741 18.952C99.4741 19.496 99.4208 19.96 99.3141 20.344C99.2075 20.728 99.0635 21.0427 98.8821 21.288C98.7115 21.5333 98.5142 21.7307 98.2902 21.88C98.0662 22.0293 97.8368 22.152 97.6022 22.248L99.8103 27H97.3943L95.4902 22.616C95.3622 22.616 95.2128 22.616 95.0422 22.616C94.8822 22.6053 94.7168 22.6 94.5462 22.6C94.3755 22.6 94.2048 22.6 94.0342 22.6C93.8635 22.6 93.7088 22.5947 93.5702 22.584L93.5703 27H91.2023ZM93.5701 20.712H95.6821C95.8955 20.712 96.0875 20.6853 96.2581 20.632C96.4288 20.5787 96.5781 20.488 96.7061 20.36C96.8341 20.2213 96.9301 20.04 96.9941 19.816C97.0688 19.592 97.1061 19.304 97.1061 18.952C97.1061 18.6213 97.0688 18.3493 96.9941 18.136C96.9301 17.912 96.8341 17.7413 96.7061 17.624C96.5781 17.496 96.4287 17.4107 96.2581 17.368C96.0874 17.3147 95.8954 17.288 95.6821 17.288H93.5701L93.5701 20.712ZM100.482 27L104.193 15.16L107.185 15.16L110.898 27H108.434L107.681 24.52H103.649L102.914 27H100.482ZM104.209 22.392H107.121L105.665 17.192L104.209 22.392ZM111.874 27L111.874 17.864C111.874 17.3413 111.954 16.904 112.114 16.552C112.274 16.2 112.487 15.9227 112.754 15.72C113.021 15.5173 113.314 15.3733 113.634 15.288C113.954 15.2027 114.269 15.16 114.578 15.16C114.962 15.16 115.437 15.1653 116.002 15.176C116.578 15.176 117.186 15.192 117.826 15.224C118.477 15.256 119.101 15.304 119.698 15.368L119.698 17.352H115.234C114.903 17.352 114.653 17.4427 114.482 17.624C114.322 17.7947 114.242 18.024 114.242 18.312L114.242 20.328L118.93 20.456L118.93 22.328L114.242 22.456L114.242 27L111.874 27ZM121.046 27L121.046 17.864C121.046 17.3413 121.126 16.904 121.286 16.552C121.446 16.2 121.659 15.9227 121.926 15.72C122.192 15.5173 122.486 15.3733 122.806 15.288C123.126 15.2027 123.44 15.16 123.75 15.16C124.134 15.16 124.608 15.1653 125.174 15.176C125.75 15.176 126.358 15.192 126.998 15.224C127.648 15.256 128.272 15.304 128.87 15.368L128.87 17.352H124.406C124.075 17.352 123.824 17.4427 123.654 17.624C123.494 17.7947 123.414 18.024 123.414 18.312L123.414 20.328L128.102 20.456L128.102 22.328L123.414 22.456L123.414 27H121.046ZM130.374 27L130.374 15.16H132.742L132.742 27H130.374ZM138.78 27.096C138.087 27.096 137.473 27.016 136.94 26.856C136.417 26.696 135.969 26.4027 135.596 25.976C135.233 25.5493 134.956 24.9413 134.764 24.152C134.583 23.352 134.492 22.3173 134.492 21.048C134.492 19.8213 134.588 18.8187 134.78 18.04C134.982 17.2507 135.27 16.6427 135.644 16.216C136.017 15.7787 136.47 15.4747 137.004 15.304C137.537 15.1333 138.14 15.048 138.812 15.048C139.345 15.048 139.841 15.08 140.3 15.144C140.769 15.1973 141.19 15.2667 141.564 15.352C141.937 15.4267 142.252 15.512 142.508 15.608L142.508 17.448C142.316 17.4053 142.054 17.3627 141.724 17.32C141.404 17.2773 141.036 17.2453 140.62 17.224C140.204 17.192 139.766 17.176 139.308 17.176C138.86 17.176 138.476 17.2293 138.156 17.336C137.846 17.432 137.596 17.6187 137.404 17.896C137.223 18.1627 137.084 18.552 136.988 19.064C136.903 19.576 136.86 20.2427 136.86 21.064C136.86 21.8533 136.897 22.504 136.972 23.016C137.057 23.528 137.191 23.928 137.372 24.216C137.553 24.4933 137.799 24.6907 138.108 24.808C138.428 24.9147 138.828 24.968 139.308 24.968C140.119 24.968 140.775 24.952 141.276 24.92C141.788 24.888 142.199 24.8507 142.508 24.808L142.508 26.632C142.22 26.728 141.889 26.8133 141.516 26.888C141.143 26.952 140.732 27 140.284 27.032C139.836 27.0747 139.335 27.096 138.78 27.096Z" fill="white"/>
<mask id="path-2-outside-1_1_6510" maskUnits="userSpaceOnUse" x="174.49" y="14.4761" width="128" height="14" fill="black">
<rect fill="white" x="174.49" y="14.4761" width="128" height="14"/>
<path d="M178.323 27.4281L175.49 15.5881H177.938L179.843 23.9401L182.066 15.5881H184.242L186.451 23.9401L188.354 15.5881H190.802L187.971 27.4281H185.555L183.155 19.0761L180.739 27.4281H178.323Z"/>
<path d="M194.576 27.5081C194.32 27.5081 194.026 27.4814 193.696 27.4281C193.365 27.3854 193.045 27.2787 192.736 27.1081C192.437 26.9374 192.186 26.6814 191.984 26.3401C191.792 25.9881 191.696 25.5081 191.696 24.9001L191.696 18.2921C191.696 17.7694 191.776 17.3321 191.936 16.9801C192.096 16.6281 192.309 16.3507 192.576 16.1481C192.842 15.9454 193.136 15.8014 193.456 15.7161C193.776 15.6307 194.09 15.5881 194.4 15.5881C195.2 15.5881 195.904 15.5987 196.512 15.6201C197.13 15.6414 197.685 15.6681 198.176 15.7001C198.666 15.7214 199.114 15.7534 199.52 15.7961L199.52 17.7801H195.104C194.773 17.7801 194.517 17.8601 194.336 18.0201C194.154 18.1801 194.064 18.4254 194.064 18.7561L194.064 20.4681L198.752 20.5961L198.752 22.4681L194.064 22.5961L194.064 24.2281C194.064 24.5054 194.106 24.7241 194.192 24.8841C194.288 25.0334 194.41 25.1401 194.56 25.2041C194.72 25.2574 194.885 25.2841 195.056 25.2841H199.52L199.52 27.2681C199.05 27.3214 198.528 27.3641 197.952 27.3961C197.386 27.4281 196.81 27.4547 196.224 27.4761C195.648 27.4974 195.098 27.5081 194.576 27.5081Z"/>
<path d="M205.368 27.4281L205.367 15.5881L210.023 15.5881C211.197 15.5881 212.05 15.8601 212.583 16.4041C213.128 16.9374 213.4 17.7001 213.4 18.6921C213.4 19.1614 213.33 19.5774 213.192 19.9401C213.064 20.2921 212.877 20.5854 212.632 20.8201C212.386 21.0441 212.093 21.1987 211.752 21.2841C212.008 21.3481 212.253 21.4494 212.488 21.5881C212.733 21.7267 212.952 21.9134 213.144 22.1481C213.346 22.3827 213.501 22.6707 213.608 23.0121C213.725 23.3427 213.784 23.7267 213.784 24.1641C213.784 24.9641 213.645 25.6041 213.368 26.0841C213.101 26.5641 212.701 26.9107 212.168 27.1241C211.645 27.3267 211 27.4281 210.232 27.4281H205.368ZM207.736 25.3001H210.168C210.445 25.3001 210.685 25.2467 210.888 25.1401C211.09 25.0334 211.245 24.8681 211.352 24.6441C211.469 24.4201 211.528 24.1214 211.528 23.7481C211.528 23.4387 211.469 23.1774 211.352 22.9641C211.234 22.7507 211.074 22.5854 210.872 22.4681C210.669 22.3507 210.434 22.2921 210.168 22.2921H207.736L207.736 25.3001ZM207.736 20.4681H210.04C210.381 20.4681 210.648 20.3454 210.84 20.1001C211.042 19.8441 211.144 19.5134 211.144 19.1081C211.154 18.5854 211.048 18.2227 210.824 18.0201C210.6 17.8174 210.328 17.7161 210.008 17.7161H207.736L207.736 20.4681Z"/>
<path d="M219.863 27.5081C219.212 27.5081 218.604 27.4547 218.039 27.3481C217.474 27.2307 216.978 27.0334 216.551 26.7561C216.135 26.4681 215.81 26.0734 215.575 25.5721C215.351 25.0601 215.239 24.4094 215.239 23.6201L215.239 15.5881H217.607L217.607 23.6041C217.607 24.0414 217.692 24.3881 217.863 24.6441C218.044 24.9001 218.3 25.0867 218.631 25.2041C218.972 25.3214 219.383 25.3801 219.863 25.3801C220.332 25.3801 220.732 25.3214 221.063 25.2041C221.404 25.0867 221.66 24.9001 221.831 24.6441C222.012 24.3881 222.103 24.0414 222.103 23.6041L222.103 15.5881H224.487L224.487 23.6201C224.487 24.4094 224.37 25.0601 224.135 25.5721C223.9 26.0734 223.575 26.4681 223.159 26.7561C222.743 27.0334 222.252 27.2307 221.687 27.3481C221.132 27.4547 220.524 27.5081 219.863 27.5081Z"/>
<path d="M229.184 27.4281L229.184 23.8441L225.615 15.5881H228.079L230.416 21.4281L232.735 15.5881H235.103L231.552 23.8441L231.552 27.4281H229.184Z"/>
<path d="M243.02 27.4281L243.019 17.7161H239.771L239.771 15.5881H248.651L248.651 17.7161L245.387 17.7161L245.388 27.4281H243.02Z"/>
<path d="M249.93 27.4281L249.93 15.5881H254.826C255.295 15.5881 255.733 15.6467 256.138 15.7641C256.543 15.8707 256.901 16.0627 257.21 16.3401C257.519 16.6174 257.759 17.0014 257.93 17.4921C258.111 17.9827 258.202 18.6121 258.202 19.3801C258.202 19.9241 258.149 20.3881 258.042 20.7721C257.935 21.1561 257.791 21.4707 257.61 21.7161C257.439 21.9614 257.242 22.1587 257.018 22.3081C256.794 22.4574 256.565 22.5801 256.33 22.6761L258.538 27.4281H256.122L254.218 23.0441C254.09 23.0441 253.941 23.0441 253.77 23.0441C253.61 23.0334 253.445 23.0281 253.274 23.0281C253.103 23.0281 252.933 23.0281 252.762 23.0281C252.591 23.0281 252.437 23.0227 252.298 23.0121L252.298 27.4281H249.93ZM252.298 21.1401H254.41C254.623 21.1401 254.815 21.1134 254.986 21.0601C255.157 21.0067 255.306 20.9161 255.434 20.7881C255.562 20.6494 255.658 20.4681 255.722 20.2441C255.797 20.0201 255.834 19.7321 255.834 19.3801C255.834 19.0494 255.797 18.7774 255.722 18.5641C255.658 18.3401 255.562 18.1694 255.434 18.0521C255.306 17.9241 255.157 17.8387 254.986 17.7961C254.815 17.7427 254.623 17.7161 254.41 17.7161H252.298L252.298 21.1401Z"/>
<path d="M259.209 27.4281L262.921 15.5881H265.913L269.625 27.4281H267.161L266.409 24.9481H262.377L261.641 27.4281H259.209ZM262.937 22.8201H265.849L264.393 17.6201L262.937 22.8201Z"/>
<path d="M270.602 27.4281L270.602 18.2921C270.602 17.7694 270.682 17.3321 270.842 16.9801C271.002 16.6281 271.215 16.3507 271.482 16.1481C271.749 15.9454 272.042 15.8014 272.362 15.7161C272.682 15.6307 272.997 15.5881 273.306 15.5881C273.69 15.5881 274.165 15.5934 274.73 15.6041C275.306 15.6041 275.914 15.6201 276.554 15.6521C277.205 15.6841 277.829 15.7321 278.426 15.7961L278.426 17.7801H273.962C273.631 17.7801 273.381 17.8707 273.21 18.0521C273.05 18.2227 272.97 18.4521 272.97 18.7401L272.97 20.7561L277.658 20.8841L277.658 22.7561L272.97 22.8841L272.97 27.4281L270.602 27.4281Z"/>
<path d="M279.774 27.4281L279.774 18.2921C279.774 17.7694 279.854 17.3321 280.014 16.9801C280.174 16.6281 280.387 16.3507 280.654 16.1481C280.92 15.9454 281.214 15.8014 281.534 15.7161C281.854 15.6307 282.168 15.5881 282.478 15.5881C282.862 15.5881 283.336 15.5934 283.902 15.6041C284.478 15.6041 285.086 15.6201 285.726 15.6521C286.376 15.6841 287 15.7321 287.598 15.7961L287.598 17.7801H283.134C282.803 17.7801 282.552 17.8707 282.382 18.0521C282.222 18.2227 282.142 18.4521 282.142 18.7401L282.142 20.7561L286.83 20.8841L286.83 22.7561L282.142 22.8841L282.142 27.4281H279.774Z"/>
<path d="M289.102 27.4281L289.102 15.5881H291.47L291.47 27.4281H289.102Z"/>
<path d="M297.508 27.5241C296.815 27.5241 296.201 27.4441 295.668 27.2841C295.145 27.1241 294.697 26.8307 294.324 26.4041C293.961 25.9774 293.684 25.3694 293.492 24.5801C293.311 23.7801 293.22 22.7454 293.22 21.4761C293.22 20.2494 293.316 19.2467 293.508 18.4681C293.71 17.6787 293.998 17.0707 294.372 16.6441C294.745 16.2067 295.198 15.9027 295.732 15.7321C296.265 15.5614 296.868 15.4761 297.54 15.4761C298.073 15.4761 298.569 15.5081 299.028 15.5721C299.497 15.6254 299.918 15.6947 300.292 15.7801C300.665 15.8547 300.98 15.9401 301.236 16.0361L301.236 17.8761C301.044 17.8334 300.782 17.7907 300.452 17.7481C300.132 17.7054 299.764 17.6734 299.348 17.6521C298.932 17.6201 298.494 17.6041 298.036 17.6041C297.588 17.6041 297.204 17.6574 296.884 17.7641C296.574 17.8601 296.324 18.0467 296.132 18.3241C295.95 18.5907 295.812 18.9801 295.716 19.4921C295.63 20.0041 295.588 20.6707 295.588 21.4921C295.588 22.2814 295.625 22.9321 295.7 23.4441C295.785 23.9561 295.919 24.3561 296.1 24.6441C296.281 24.9214 296.527 25.1187 296.836 25.2361C297.156 25.3427 297.556 25.3961 298.036 25.3961C298.847 25.3961 299.503 25.3801 300.004 25.3481C300.516 25.3161 300.927 25.2787 301.236 25.2361L301.236 27.0601C300.948 27.1561 300.617 27.2414 300.244 27.3161C299.871 27.3801 299.46 27.4281 299.012 27.4601C298.564 27.5027 298.063 27.5241 297.508 27.5241Z"/>
</mask>
<path d="M178.323 27.4281L175.49 15.5881H177.938L179.843 23.9401L182.066 15.5881H184.242L186.451 23.9401L188.354 15.5881H190.802L187.971 27.4281H185.555L183.155 19.0761L180.739 27.4281H178.323Z" stroke="white" stroke-width="1.5" mask="url(#path-2-outside-1_1_6510)"/>
<path d="M194.576 27.5081C194.32 27.5081 194.026 27.4814 193.696 27.4281C193.365 27.3854 193.045 27.2787 192.736 27.1081C192.437 26.9374 192.186 26.6814 191.984 26.3401C191.792 25.9881 191.696 25.5081 191.696 24.9001L191.696 18.2921C191.696 17.7694 191.776 17.3321 191.936 16.9801C192.096 16.6281 192.309 16.3507 192.576 16.1481C192.842 15.9454 193.136 15.8014 193.456 15.7161C193.776 15.6307 194.09 15.5881 194.4 15.5881C195.2 15.5881 195.904 15.5987 196.512 15.6201C197.13 15.6414 197.685 15.6681 198.176 15.7001C198.666 15.7214 199.114 15.7534 199.52 15.7961L199.52 17.7801H195.104C194.773 17.7801 194.517 17.8601 194.336 18.0201C194.154 18.1801 194.064 18.4254 194.064 18.7561L194.064 20.4681L198.752 20.5961L198.752 22.4681L194.064 22.5961L194.064 24.2281C194.064 24.5054 194.106 24.7241 194.192 24.8841C194.288 25.0334 194.41 25.1401 194.56 25.2041C194.72 25.2574 194.885 25.2841 195.056 25.2841H199.52L199.52 27.2681C199.05 27.3214 198.528 27.3641 197.952 27.3961C197.386 27.4281 196.81 27.4547 196.224 27.4761C195.648 27.4974 195.098 27.5081 194.576 27.5081Z" stroke="white" stroke-width="1.5" mask="url(#path-2-outside-1_1_6510)"/>
<path d="M205.368 27.4281L205.367 15.5881L210.023 15.5881C211.197 15.5881 212.05 15.8601 212.583 16.4041C213.128 16.9374 213.4 17.7001 213.4 18.6921C213.4 19.1614 213.33 19.5774 213.192 19.9401C213.064 20.2921 212.877 20.5854 212.632 20.8201C212.386 21.0441 212.093 21.1987 211.752 21.2841C212.008 21.3481 212.253 21.4494 212.488 21.5881C212.733 21.7267 212.952 21.9134 213.144 22.1481C213.346 22.3827 213.501 22.6707 213.608 23.0121C213.725 23.3427 213.784 23.7267 213.784 24.1641C213.784 24.9641 213.645 25.6041 213.368 26.0841C213.101 26.5641 212.701 26.9107 212.168 27.1241C211.645 27.3267 211 27.4281 210.232 27.4281H205.368ZM207.736 25.3001H210.168C210.445 25.3001 210.685 25.2467 210.888 25.1401C211.09 25.0334 211.245 24.8681 211.352 24.6441C211.469 24.4201 211.528 24.1214 211.528 23.7481C211.528 23.4387 211.469 23.1774 211.352 22.9641C211.234 22.7507 211.074 22.5854 210.872 22.4681C210.669 22.3507 210.434 22.2921 210.168 22.2921H207.736L207.736 25.3001ZM207.736 20.4681H210.04C210.381 20.4681 210.648 20.3454 210.84 20.1001C211.042 19.8441 211.144 19.5134 211.144 19.1081C211.154 18.5854 211.048 18.2227 210.824 18.0201C210.6 17.8174 210.328 17.7161 210.008 17.7161H207.736L207.736 20.4681Z" stroke="white" stroke-width="1.5" mask="url(#path-2-outside-1_1_6510)"/>
<path d="M219.863 27.5081C219.212 27.5081 218.604 27.4547 218.039 27.3481C217.474 27.2307 216.978 27.0334 216.551 26.7561C216.135 26.4681 215.81 26.0734 215.575 25.5721C215.351 25.0601 215.239 24.4094 215.239 23.6201L215.239 15.5881H217.607L217.607 23.6041C217.607 24.0414 217.692 24.3881 217.863 24.6441C218.044 24.9001 218.3 25.0867 218.631 25.2041C218.972 25.3214 219.383 25.3801 219.863 25.3801C220.332 25.3801 220.732 25.3214 221.063 25.2041C221.404 25.0867 221.66 24.9001 221.831 24.6441C222.012 24.3881 222.103 24.0414 222.103 23.6041L222.103 15.5881H224.487L224.487 23.6201C224.487 24.4094 224.37 25.0601 224.135 25.5721C223.9 26.0734 223.575 26.4681 223.159 26.7561C222.743 27.0334 222.252 27.2307 221.687 27.3481C221.132 27.4547 220.524 27.5081 219.863 27.5081Z" stroke="white" stroke-width="1.5" mask="url(#path-2-outside-1_1_6510)"/>
<path d="M229.184 27.4281L229.184 23.8441L225.615 15.5881H228.079L230.416 21.4281L232.735 15.5881H235.103L231.552 23.8441L231.552 27.4281H229.184Z" stroke="white" stroke-width="1.5" mask="url(#path-2-outside-1_1_6510)"/>
<path d="M243.02 27.4281L243.019 17.7161H239.771L239.771 15.5881H248.651L248.651 17.7161L245.387 17.7161L245.388 27.4281H243.02Z" stroke="white" stroke-width="1.5" mask="url(#path-2-outside-1_1_6510)"/>
<path d="M249.93 27.4281L249.93 15.5881H254.826C255.295 15.5881 255.733 15.6467 256.138 15.7641C256.543 15.8707 256.901 16.0627 257.21 16.3401C257.519 16.6174 257.759 17.0014 257.93 17.4921C258.111 17.9827 258.202 18.6121 258.202 19.3801C258.202 19.9241 258.149 20.3881 258.042 20.7721C257.935 21.1561 257.791 21.4707 257.61 21.7161C257.439 21.9614 257.242 22.1587 257.018 22.3081C256.794 22.4574 256.565 22.5801 256.33 22.6761L258.538 27.4281H256.122L254.218 23.0441C254.09 23.0441 253.941 23.0441 253.77 23.0441C253.61 23.0334 253.445 23.0281 253.274 23.0281C253.103 23.0281 252.933 23.0281 252.762 23.0281C252.591 23.0281 252.437 23.0227 252.298 23.0121L252.298 27.4281H249.93ZM252.298 21.1401H254.41C254.623 21.1401 254.815 21.1134 254.986 21.0601C255.157 21.0067 255.306 20.9161 255.434 20.7881C255.562 20.6494 255.658 20.4681 255.722 20.2441C255.797 20.0201 255.834 19.7321 255.834 19.3801C255.834 19.0494 255.797 18.7774 255.722 18.5641C255.658 18.3401 255.562 18.1694 255.434 18.0521C255.306 17.9241 255.157 17.8387 254.986 17.7961C254.815 17.7427 254.623 17.7161 254.41 17.7161H252.298L252.298 21.1401Z" stroke="white" stroke-width="1.5" mask="url(#path-2-outside-1_1_6510)"/>
<path d="M259.209 27.4281L262.921 15.5881H265.913L269.625 27.4281H267.161L266.409 24.9481H262.377L261.641 27.4281H259.209ZM262.937 22.8201H265.849L264.393 17.6201L262.937 22.8201Z" stroke="white" stroke-width="1.5" mask="url(#path-2-outside-1_1_6510)"/>
<path d="M270.602 27.4281L270.602 18.2921C270.602 17.7694 270.682 17.3321 270.842 16.9801C271.002 16.6281 271.215 16.3507 271.482 16.1481C271.749 15.9454 272.042 15.8014 272.362 15.7161C272.682 15.6307 272.997 15.5881 273.306 15.5881C273.69 15.5881 274.165 15.5934 274.73 15.6041C275.306 15.6041 275.914 15.6201 276.554 15.6521C277.205 15.6841 277.829 15.7321 278.426 15.7961L278.426 17.7801H273.962C273.631 17.7801 273.381 17.8707 273.21 18.0521C273.05 18.2227 272.97 18.4521 272.97 18.7401L272.97 20.7561L277.658 20.8841L277.658 22.7561L272.97 22.8841L272.97 27.4281L270.602 27.4281Z" stroke="white" stroke-width="1.5" mask="url(#path-2-outside-1_1_6510)"/>
<path d="M279.774 27.4281L279.774 18.2921C279.774 17.7694 279.854 17.3321 280.014 16.9801C280.174 16.6281 280.387 16.3507 280.654 16.1481C280.92 15.9454 281.214 15.8014 281.534 15.7161C281.854 15.6307 282.168 15.5881 282.478 15.5881C282.862 15.5881 283.336 15.5934 283.902 15.6041C284.478 15.6041 285.086 15.6201 285.726 15.6521C286.376 15.6841 287 15.7321 287.598 15.7961L287.598 17.7801H283.134C282.803 17.7801 282.552 17.8707 282.382 18.0521C282.222 18.2227 282.142 18.4521 282.142 18.7401L282.142 20.7561L286.83 20.8841L286.83 22.7561L282.142 22.8841L282.142 27.4281H279.774Z" stroke="white" stroke-width="1.5" mask="url(#path-2-outside-1_1_6510)"/>
<path d="M289.102 27.4281L289.102 15.5881H291.47L291.47 27.4281H289.102Z" stroke="white" stroke-width="1.5" mask="url(#path-2-outside-1_1_6510)"/>
<path d="M297.508 27.5241C296.815 27.5241 296.201 27.4441 295.668 27.2841C295.145 27.1241 294.697 26.8307 294.324 26.4041C293.961 25.9774 293.684 25.3694 293.492 24.5801C293.311 23.7801 293.22 22.7454 293.22 21.4761C293.22 20.2494 293.316 19.2467 293.508 18.4681C293.71 17.6787 293.998 17.0707 294.372 16.6441C294.745 16.2067 295.198 15.9027 295.732 15.7321C296.265 15.5614 296.868 15.4761 297.54 15.4761C298.073 15.4761 298.569 15.5081 299.028 15.5721C299.497 15.6254 299.918 15.6947 300.292 15.7801C300.665 15.8547 300.98 15.9401 301.236 16.0361L301.236 17.8761C301.044 17.8334 300.782 17.7907 300.452 17.7481C300.132 17.7054 299.764 17.6734 299.348 17.6521C298.932 17.6201 298.494 17.6041 298.036 17.6041C297.588 17.6041 297.204 17.6574 296.884 17.7641C296.574 17.8601 296.324 18.0467 296.132 18.3241C295.95 18.5907 295.812 18.9801 295.716 19.4921C295.63 20.0041 295.588 20.6707 295.588 21.4921C295.588 22.2814 295.625 22.9321 295.7 23.4441C295.785 23.9561 295.919 24.3561 296.1 24.6441C296.281 24.9214 296.527 25.1187 296.836 25.2361C297.156 25.3427 297.556 25.3961 298.036 25.3961C298.847 25.3961 299.503 25.3801 300.004 25.3481C300.516 25.3161 300.927 25.2787 301.236 25.2361L301.236 27.0601C300.948 27.1561 300.617 27.2414 300.244 27.3161C299.871 27.3801 299.46 27.4281 299.012 27.4601C298.564 27.5027 298.063 27.5241 297.508 27.5241Z" stroke="white" stroke-width="1.5" mask="url(#path-2-outside-1_1_6510)"/>
<path d="M336.34 27L333.508 15.16H335.956L337.86 23.512L340.084 15.16H342.26L344.468 23.512L346.372 15.16H348.82L345.988 27H343.572L341.172 18.648L338.756 27H336.34ZM352.593 27.08C352.337 27.08 352.044 27.0533 351.713 27C351.382 26.9573 351.062 26.8507 350.753 26.68C350.454 26.5093 350.204 26.2533 350.001 25.912C349.809 25.56 349.713 25.08 349.713 24.472L349.713 17.864C349.713 17.3413 349.793 16.904 349.953 16.552C350.113 16.2 350.326 15.9227 350.593 15.72C350.859 15.5173 351.153 15.3733 351.473 15.288C351.793 15.2027 352.107 15.16 352.417 15.16C353.217 15.16 353.921 15.1707 354.529 15.192C355.147 15.2133 355.702 15.24 356.193 15.272C356.683 15.2933 357.131 15.3253 357.537 15.368L357.537 17.352H353.121C352.79 17.352 352.534 17.432 352.353 17.592C352.171 17.752 352.081 17.9973 352.081 18.328L352.081 20.04L356.769 20.168L356.769 22.04L352.081 22.168L352.081 23.8C352.081 24.0773 352.124 24.296 352.209 24.456C352.305 24.6053 352.428 24.712 352.577 24.776C352.737 24.8293 352.902 24.856 353.073 24.856H357.537L357.537 26.84C357.068 26.8933 356.545 26.936 355.969 26.968C355.404 27 354.828 27.0267 354.241 27.048C353.665 27.0693 353.116 27.08 352.593 27.08ZM363.385 27L363.385 15.16H368.041C369.214 15.16 370.067 15.432 370.601 15.976C371.145 16.5093 371.417 17.272 371.417 18.264C371.417 18.7333 371.347 19.1493 371.209 19.512C371.081 19.864 370.894 20.1573 370.649 20.392C370.403 20.616 370.11 20.7707 369.769 20.856C370.025 20.92 370.27 21.0213 370.505 21.16C370.75 21.2987 370.969 21.4853 371.161 21.72C371.363 21.9547 371.518 22.2427 371.625 22.584C371.742 22.9147 371.801 23.2987 371.801 23.736C371.801 24.536 371.662 25.176 371.385 25.656C371.118 26.136 370.718 26.4827 370.185 26.696C369.662 26.8987 369.017 27 368.249 27H363.385ZM365.753 24.872H368.185C368.462 24.872 368.702 24.8187 368.905 24.712C369.107 24.6053 369.262 24.44 369.369 24.216C369.486 23.992 369.545 23.6933 369.545 23.32C369.545 23.0107 369.486 22.7493 369.369 22.536C369.251 22.3227 369.091 22.1573 368.889 22.04C368.686 21.9227 368.451 21.864 368.185 21.864H365.753L365.753 24.872ZM365.753 20.04H368.057C368.398 20.04 368.665 19.9173 368.857 19.672C369.059 19.416 369.161 19.0853 369.161 18.68C369.171 18.1573 369.065 17.7947 368.841 17.592C368.617 17.3893 368.345 17.288 368.025 17.288H365.753L365.753 20.04ZM377.88 27.08C377.229 27.08 376.621 27.0267 376.056 26.92C375.491 26.8027 374.995 26.6053 374.568 26.328C374.152 26.04 373.827 25.6453 373.592 25.144C373.368 24.632 373.256 23.9813 373.256 23.192L373.256 15.16H375.624L375.624 23.176C375.624 23.6133 375.709 23.96 375.88 24.216C376.061 24.472 376.317 24.6587 376.648 24.776C376.989 24.8933 377.4 24.952 377.88 24.952C378.349 24.952 378.749 24.8933 379.08 24.776C379.421 24.6587 379.677 24.472 379.848 24.216C380.029 23.96 380.12 23.6133 380.12 23.176L380.12 15.16H382.504L382.504 23.192C382.504 23.9813 382.387 24.632 382.152 25.144C381.917 25.6453 381.592 26.04 381.176 26.328C380.76 26.6053 380.269 26.8027 379.704 26.92C379.149 27.0267 378.541 27.08 377.88 27.08ZM387.201 27L387.201 23.416L383.633 15.16H386.097L388.433 21L390.753 15.16H393.121L389.569 23.416L389.569 27H387.201ZM401.037 27L401.037 17.288H397.789L397.789 15.16H406.669L406.669 17.288H403.405L403.405 27H401.037ZM407.947 27L407.947 15.16H412.843C413.312 15.16 413.75 15.2187 414.155 15.336C414.56 15.4427 414.918 15.6347 415.227 15.912C415.537 16.1893 415.777 16.5733 415.947 17.064C416.129 17.5547 416.219 18.184 416.219 18.952C416.219 19.496 416.166 19.96 416.059 20.344C415.953 20.728 415.809 21.0427 415.627 21.288C415.457 21.5333 415.259 21.7307 415.035 21.88C414.811 22.0293 414.582 22.152 414.347 22.248L416.555 27H414.139L412.235 22.616C412.107 22.616 411.958 22.616 411.787 22.616C411.627 22.6053 411.462 22.6 411.291 22.6C411.121 22.6 410.95 22.6 410.779 22.6C410.609 22.6 410.454 22.5947 410.315 22.584L410.315 27H407.947ZM410.315 20.712H412.427C412.641 20.712 412.833 20.6853 413.003 20.632C413.174 20.5787 413.323 20.488 413.451 20.36C413.579 20.2213 413.675 20.04 413.739 19.816C413.814 19.592 413.851 19.304 413.851 18.952C413.851 18.6213 413.814 18.3493 413.739 18.136C413.675 17.912 413.579 17.7413 413.451 17.624C413.323 17.496 413.174 17.4107 413.003 17.368C412.833 17.3147 412.641 17.288 412.427 17.288H410.315L410.315 20.712ZM417.227 27L420.938 15.16L423.93 15.16L427.643 27H425.179L424.427 24.52H420.395L419.659 27H417.227ZM420.955 22.392H423.867L422.41 17.192L420.955 22.392ZM428.619 27L428.619 17.864C428.619 17.3413 428.699 16.904 428.859 16.552C429.019 16.2 429.232 15.9227 429.499 15.72C429.766 15.5173 430.059 15.3733 430.379 15.288C430.699 15.2027 431.014 15.16 431.323 15.16C431.707 15.16 432.182 15.1653 432.747 15.176C433.323 15.176 433.931 15.192 434.571 15.224C435.222 15.256 435.846 15.304 436.443 15.368L436.443 17.352H431.979C431.648 17.352 431.398 17.4427 431.227 17.624C431.067 17.7947 430.987 18.024 430.987 18.312L430.987 20.328L435.675 20.456L435.675 22.328L430.987 22.456L430.987 27L428.619 27ZM437.791 27L437.791 17.864C437.791 17.3413 437.871 16.904 438.031 16.552C438.191 16.2 438.404 15.9227 438.671 15.72C438.938 15.5173 439.231 15.3733 439.551 15.288C439.871 15.2027 440.186 15.16 440.495 15.16C440.879 15.16 441.354 15.1653 441.919 15.176C442.495 15.176 443.103 15.192 443.743 15.224C444.394 15.256 445.018 15.304 445.615 15.368L445.615 17.352H441.151C440.82 17.352 440.57 17.4427 440.399 17.624C440.239 17.7947 440.159 18.024 440.159 18.312L440.159 20.328L444.847 20.456L444.847 22.328L440.159 22.456L440.159 27H437.791ZM447.119 27L447.119 15.16H449.487L449.487 27H447.119ZM455.525 27.096C454.832 27.096 454.218 27.016 453.685 26.856C453.162 26.696 452.714 26.4027 452.341 25.976C451.978 25.5493 451.701 24.9413 451.509 24.152C451.328 23.352 451.237 22.3173 451.237 21.048C451.237 19.8213 451.333 18.8187 451.525 18.04C451.728 17.2507 452.016 16.6427 452.389 16.216C452.762 15.7787 453.216 15.4747 453.749 15.304C454.282 15.1333 454.885 15.048 455.557 15.048C456.09 15.048 456.586 15.08 457.045 15.144C457.514 15.1973 457.936 15.2667 458.309 15.352C458.682 15.4267 458.997 15.512 459.253 15.608L459.253 17.448C459.061 17.4053 458.8 17.3627 458.469 17.32C458.149 17.2773 457.781 17.2453 457.365 17.224C456.949 17.192 456.512 17.176 456.053 17.176C455.605 17.176 455.221 17.2293 454.901 17.336C454.592 17.432 454.341 17.6187 454.149 17.896C453.968 18.1627 453.829 18.552 453.733 19.064C453.648 19.576 453.605 20.2427 453.605 21.064C453.605 21.8533 453.642 22.504 453.717 23.016C453.802 23.528 453.936 23.928 454.117 24.216C454.298 24.4933 454.544 24.6907 454.853 24.808C455.173 24.9147 455.573 24.968 456.053 24.968C456.864 24.968 457.52 24.952 458.021 24.92C458.533 24.888 458.944 24.8507 459.253 24.808L459.253 26.632C458.965 26.728 458.634 26.8133 458.261 26.888C457.888 26.952 457.477 27 457.029 27.032C456.581 27.0747 456.08 27.096 455.525 27.096Z" fill="white"/>
</g>
<defs>
<clipPath id="clip0_1_6510">
<rect width="476" height="43" fill="white" transform="matrix(1 0 1.85021e-05 1 0 0)"/>
</clipPath>
</defs>
</svg>
