<svg width="476" height="43" viewBox="0 0 476 43" fill="none" xmlns="http://www.w3.org/2000/svg">
<g clip-path="url(#clip0_1_6529)">
<rect width="475.999" height="43" transform="matrix(1 0 1.85068e-05 1 0 0)" fill="#E9A923"/>
<path d="M3.10452 27L0.272303 15.16H2.7203L4.62446 23.512L6.8483 15.16H9.0243L11.2325 23.512L13.1363 15.16H15.5843L12.7525 27H10.3365L7.93637 18.648L5.52052 27H3.10452ZM19.3576 27.08C19.1016 27.08 18.8083 27.0533 18.4776 27C18.147 26.9573 17.827 26.8507 17.5176 26.68C17.219 26.5093 16.9683 26.2533 16.7656 25.912C16.5736 25.56 16.4776 25.08 16.4776 24.472L16.4775 17.864C16.4775 17.3413 16.5575 16.904 16.7175 16.552C16.8774 16.2 17.0908 15.9227 17.3574 15.72C17.6241 15.5173 17.9174 15.3733 18.2374 15.288C18.5574 15.2027 18.8721 15.16 19.1814 15.16C19.9814 15.16 20.6854 15.1707 21.2934 15.192C21.9121 15.2133 22.4668 15.24 22.9574 15.272C23.4481 15.2933 23.8961 15.3253 24.3014 15.368L24.3015 17.352H19.8855C19.5548 17.352 19.2988 17.432 19.1175 17.592C18.9361 17.752 18.8455 17.9973 18.8455 18.328L18.8455 20.04L23.5335 20.168L23.5336 22.04L18.8456 22.168L18.8456 23.8C18.8456 24.0773 18.8883 24.296 18.9736 24.456C19.0696 24.6053 19.1923 24.712 19.3416 24.776C19.5016 24.8293 19.6669 24.856 19.8376 24.856H24.3016L24.3016 26.84C23.8323 26.8933 23.3096 26.936 22.7336 26.968C22.1683 27 21.5923 27.0267 21.0056 27.048C20.4296 27.0693 19.8803 27.08 19.3576 27.08ZM30.1495 27L30.1493 15.16H34.8053C35.9786 15.16 36.832 15.432 37.3653 15.976C37.9093 16.5093 38.1813 17.272 38.1814 18.264C38.1814 18.7333 38.112 19.1493 37.9734 19.512C37.8454 19.864 37.6587 20.1573 37.4134 20.392C37.1681 20.616 36.8747 20.7707 36.5334 20.856C36.7894 20.92 37.0347 21.0213 37.2694 21.16C37.5147 21.2987 37.7334 21.4853 37.9254 21.72C38.1281 21.9547 38.2828 22.2427 38.3894 22.584C38.5068 22.9147 38.5655 23.2987 38.5655 23.736C38.5655 24.536 38.4268 25.176 38.1495 25.656C37.8828 26.136 37.4828 26.4827 36.9495 26.696C36.4269 26.8987 35.7815 27 35.0135 27H30.1495ZM32.5175 24.872H34.9495C35.2268 24.872 35.4668 24.8187 35.6695 24.712C35.8721 24.6053 36.0268 24.44 36.1335 24.216C36.2508 23.992 36.3095 23.6933 36.3095 23.32C36.3094 23.0107 36.2508 22.7493 36.1334 22.536C36.0161 22.3227 35.8561 22.1573 35.6534 22.04C35.4508 21.9227 35.2161 21.864 34.9494 21.864H32.5174L32.5175 24.872ZM32.5174 20.04H34.8214C35.1627 20.04 35.4294 19.9173 35.6214 19.672C35.824 19.416 35.9254 19.0853 35.9254 18.68C35.936 18.1573 35.8294 17.7947 35.6053 17.592C35.3813 17.3893 35.1093 17.288 34.7893 17.288H32.5173L32.5174 20.04ZM44.6448 27.08C43.9941 27.08 43.3861 27.0267 42.8208 26.92C42.2554 26.8027 41.7594 26.6053 41.3328 26.328C40.9168 26.04 40.5914 25.6453 40.3567 25.144C40.1327 24.632 40.0207 23.9813 40.0207 23.192L40.0206 15.16H42.3886L42.3887 23.176C42.3887 23.6133 42.474 23.96 42.6447 24.216C42.8261 24.472 43.0821 24.6587 43.4127 24.776C43.7541 24.8933 44.1647 24.952 44.6447 24.952C45.1141 24.952 45.5141 24.8933 45.8447 24.776C46.1861 24.6587 46.4421 24.472 46.6127 24.216C46.794 23.96 46.8847 23.6133 46.8847 23.176L46.8846 15.16H49.2686L49.2687 23.192C49.2687 23.9813 49.1514 24.632 48.9167 25.144C48.6821 25.6453 48.3568 26.04 47.9408 26.328C47.5248 26.6053 47.0341 26.8027 46.4688 26.92C45.9141 27.0267 45.3061 27.08 44.6448 27.08ZM53.9655 27L53.9655 23.416L50.3973 15.16H52.8613L55.1974 21L57.5173 15.16H59.8853L56.3335 23.416L56.3335 27H53.9655ZM67.8014 27L67.8012 17.288H64.5532L64.5532 15.16H73.4332L73.4332 17.288H70.1692L70.1694 27H67.8014ZM74.712 27L74.7118 15.16H79.6078C80.0771 15.16 80.5145 15.2187 80.9198 15.336C81.3251 15.4427 81.6825 15.6347 81.9918 15.912C82.3012 16.1893 82.5412 16.5733 82.7118 17.064C82.8932 17.5547 82.9839 18.184 82.9839 18.952C82.9839 19.496 82.9306 19.96 82.8239 20.344C82.7172 20.728 82.5732 21.0427 82.3919 21.288C82.2213 21.5333 82.0239 21.7307 81.7999 21.88C81.5759 22.0293 81.3466 22.152 81.1119 22.248L83.32 27H80.904L78.9999 22.616C78.8719 22.616 78.7226 22.616 78.5519 22.616C78.3919 22.6053 78.2266 22.6 78.0559 22.6C77.8853 22.6 77.7146 22.6 77.5439 22.6C77.3733 22.6 77.2186 22.5947 77.0799 22.584L77.08 27H74.712ZM77.0799 20.712H79.1919C79.4052 20.712 79.5972 20.6853 79.7679 20.632C79.9386 20.5787 80.0879 20.488 80.2159 20.36C80.3439 20.2213 80.4399 20.04 80.5039 19.816C80.5786 19.592 80.6159 19.304 80.6159 18.952C80.6159 18.6213 80.5785 18.3493 80.5039 18.136C80.4399 17.912 80.3439 17.7413 80.2158 17.624C80.0878 17.496 79.9385 17.4107 79.7678 17.368C79.5972 17.3147 79.4052 17.288 79.1918 17.288H77.0798L77.0799 20.712ZM83.9913 27L87.7031 15.16H90.6951L94.4073 27H91.9433L91.1912 24.52H87.1592L86.4233 27H83.9913ZM87.7192 22.392H90.6312L89.1751 17.192L87.7192 22.392ZM95.3839 27L95.3837 17.864C95.3837 17.3413 95.4637 16.904 95.6237 16.552C95.7837 16.2 95.997 15.9227 96.2637 15.72C96.5304 15.5173 96.8237 15.3733 97.1437 15.288C97.4637 15.2027 97.7783 15.16 98.0877 15.16C98.4717 15.16 98.9463 15.1653 99.5117 15.176C100.088 15.176 100.696 15.192 101.336 15.224C101.986 15.256 102.61 15.304 103.208 15.368L103.208 17.352H98.7437C98.4131 17.352 98.1624 17.4427 97.9917 17.624C97.8317 17.7947 97.7517 18.024 97.7517 18.312L97.7518 20.328L102.44 20.456L102.44 22.328L97.7518 22.456L97.7519 27H95.3839ZM104.556 27L104.556 17.864C104.556 17.3413 104.636 16.904 104.796 16.552C104.956 16.2 105.169 15.9227 105.436 15.72C105.702 15.5173 105.996 15.3733 106.316 15.288C106.636 15.2027 106.95 15.16 107.26 15.16C107.644 15.16 108.118 15.1653 108.684 15.176C109.26 15.176 109.868 15.192 110.508 15.224C111.158 15.256 111.782 15.304 112.38 15.368L112.38 17.352H107.916C107.585 17.352 107.334 17.4427 107.164 17.624C107.004 17.7947 106.924 18.024 106.924 18.312L106.924 20.328L111.612 20.456L111.612 22.328L106.924 22.456L106.924 27H104.556ZM113.884 27L113.884 15.16H116.252L116.252 27H113.884ZM122.29 27.096C121.596 27.096 120.983 27.016 120.45 26.856C119.927 26.696 119.479 26.4027 119.106 25.976C118.743 25.5493 118.466 24.9413 118.274 24.152C118.092 23.352 118.002 22.3173 118.002 21.048C118.002 19.8213 118.098 18.8187 118.29 18.04C118.492 17.2507 118.78 16.6427 119.154 16.216C119.527 15.7787 119.98 15.4747 120.514 15.304C121.047 15.1333 121.65 15.048 122.322 15.048C122.855 15.048 123.351 15.08 123.81 15.144C124.279 15.1973 124.7 15.2667 125.074 15.352C125.447 15.4267 125.762 15.512 126.018 15.608L126.018 17.448C125.826 17.4053 125.564 17.3627 125.234 17.32C124.914 17.2773 124.546 17.2453 124.13 17.224C123.714 17.192 123.276 17.176 122.818 17.176C122.37 17.176 121.986 17.2293 121.666 17.336C121.356 17.432 121.106 17.6187 120.914 17.896C120.732 18.1627 120.594 18.552 120.498 19.064C120.412 19.576 120.37 20.2427 120.37 21.064C120.37 21.8533 120.407 22.504 120.482 23.016C120.567 23.528 120.7 23.928 120.882 24.216C121.063 24.4933 121.308 24.6907 121.618 24.808C121.938 24.9147 122.338 24.968 122.818 24.968C123.628 24.968 124.284 24.952 124.786 24.92C125.298 24.888 125.708 24.8507 126.018 24.808L126.018 26.632C125.73 26.728 125.399 26.8133 125.026 26.888C124.652 26.952 124.242 27 123.794 27.032C123.346 27.0747 122.844 27.096 122.29 27.096Z" fill="white"/>
<mask id="path-2-outside-1_1_6529" maskUnits="userSpaceOnUse" x="158" y="14.4761" width="128" height="14" fill="black">
<rect fill="white" x="158" y="14.4761" width="128" height="14"/>
<path d="M161.832 27.4281L159 15.5881H161.448L163.352 23.9401L165.576 15.5881H167.752L169.96 23.9401L171.864 15.5881H174.312L171.48 27.4281H169.064L166.664 19.0761L164.248 27.4281H161.832Z"/>
<path d="M178.086 27.5081C177.83 27.5081 177.536 27.4814 177.206 27.4281C176.875 27.3854 176.555 27.2787 176.246 27.1081C175.947 26.9374 175.696 26.6814 175.494 26.3401C175.302 25.9881 175.206 25.5081 175.206 24.9001L175.205 18.2921C175.205 17.7694 175.285 17.3321 175.445 16.9801C175.605 16.6281 175.819 16.3507 176.085 16.1481C176.352 15.9454 176.645 15.8014 176.965 15.7161C177.285 15.6307 177.6 15.5881 177.909 15.5881C178.709 15.5881 179.413 15.5987 180.021 15.6201C180.64 15.6414 181.195 15.6681 181.685 15.7001C182.176 15.7214 182.624 15.7534 183.029 15.7961L183.029 17.7801H178.613C178.283 17.7801 178.027 17.8601 177.845 18.0201C177.664 18.1801 177.573 18.4254 177.573 18.7561L177.573 20.4681L182.261 20.5961L182.261 22.4681L177.574 22.5961L177.574 24.2281C177.574 24.5054 177.616 24.7241 177.702 24.8841C177.798 25.0334 177.92 25.1401 178.07 25.2041C178.23 25.2574 178.395 25.2841 178.566 25.2841H183.03L183.03 27.2681C182.56 27.3214 182.038 27.3641 181.462 27.3961C180.896 27.4281 180.32 27.4547 179.734 27.4761C179.158 27.4974 178.608 27.5081 178.086 27.5081Z"/>
<path d="M188.877 27.4281L188.877 15.5881H193.533C194.707 15.5881 195.56 15.8601 196.093 16.4041C196.637 16.9374 196.909 17.7001 196.909 18.6921C196.909 19.1614 196.84 19.5774 196.701 19.9401C196.573 20.2921 196.387 20.5854 196.141 20.8201C195.896 21.0441 195.603 21.1987 195.261 21.2841C195.517 21.3481 195.763 21.4494 195.997 21.5881C196.243 21.7267 196.461 21.9134 196.653 22.1481C196.856 22.3827 197.011 22.6707 197.117 23.0121C197.235 23.3427 197.293 23.7267 197.293 24.1641C197.293 24.9641 197.155 25.6041 196.877 26.0841C196.611 26.5641 196.211 26.9107 195.677 27.1241C195.155 27.3267 194.509 27.4281 193.741 27.4281H188.877ZM191.245 25.3001H193.677C193.955 25.3001 194.195 25.2467 194.397 25.1401C194.6 25.0334 194.755 24.8681 194.861 24.6441C194.979 24.4201 195.037 24.1214 195.037 23.7481C195.037 23.4387 194.979 23.1774 194.861 22.9641C194.744 22.7507 194.584 22.5854 194.381 22.4681C194.179 22.3507 193.944 22.2921 193.677 22.2921H191.245L191.245 25.3001ZM191.245 20.4681H193.549C193.891 20.4681 194.157 20.3454 194.349 20.1001C194.552 19.8441 194.653 19.5134 194.653 19.1081C194.664 18.5854 194.557 18.2227 194.333 18.0201C194.109 17.8174 193.837 17.7161 193.517 17.7161H191.245L191.245 20.4681Z"/>
<path d="M203.373 27.5081C202.722 27.5081 202.114 27.4547 201.549 27.3481C200.983 27.2307 200.487 27.0334 200.061 26.7561C199.645 26.4681 199.319 26.0734 199.085 25.5721C198.861 25.0601 198.749 24.4094 198.749 23.6201L198.748 15.5881H201.116L201.117 23.6041C201.117 24.0414 201.202 24.3881 201.373 24.6441C201.554 24.9001 201.81 25.0867 202.141 25.2041C202.482 25.3214 202.893 25.3801 203.373 25.3801C203.842 25.3801 204.242 25.3214 204.573 25.2041C204.914 25.0867 205.17 24.9001 205.341 24.6441C205.522 24.3881 205.613 24.0414 205.613 23.6041L205.612 15.5881H207.996L207.997 23.6201C207.997 24.4094 207.879 25.0601 207.645 25.5721C207.41 26.0734 207.085 26.4681 206.669 26.7561C206.253 27.0334 205.762 27.2307 205.197 27.3481C204.642 27.4547 204.034 27.5081 203.373 27.5081Z"/>
<path d="M212.693 27.4281L212.693 23.8441L209.125 15.5881H211.589L213.925 21.4281L216.245 15.5881H218.613L215.061 23.8441L215.061 27.4281H212.693Z"/>
<path d="M226.529 27.4281L226.529 17.7161H223.281L223.281 15.5881H232.161L232.161 17.7161H228.897L228.897 27.4281H226.529Z"/>
<path d="M233.44 27.4281L233.44 15.5881H238.336C238.805 15.5881 239.242 15.6467 239.648 15.7641C240.053 15.8707 240.41 16.0627 240.72 16.3401C241.029 16.6174 241.269 17.0014 241.44 17.4921C241.621 17.9827 241.712 18.6121 241.712 19.3801C241.712 19.9241 241.659 20.3881 241.552 20.7721C241.445 21.1561 241.301 21.4707 241.12 21.7161C240.949 21.9614 240.752 22.1587 240.528 22.3081C240.304 22.4574 240.075 22.5801 239.84 22.6761L242.048 27.4281H239.632L237.728 23.0441C237.6 23.0441 237.451 23.0441 237.28 23.0441C237.12 23.0334 236.955 23.0281 236.784 23.0281C236.613 23.0281 236.443 23.0281 236.272 23.0281C236.101 23.0281 235.947 23.0227 235.808 23.0121L235.808 27.4281H233.44ZM235.808 21.1401H237.92C238.133 21.1401 238.325 21.1134 238.496 21.0601C238.667 21.0067 238.816 20.9161 238.944 20.7881C239.072 20.6494 239.168 20.4681 239.232 20.2441C239.306 20.0201 239.344 19.7321 239.344 19.3801C239.344 19.0494 239.306 18.7774 239.232 18.5641C239.168 18.3401 239.072 18.1694 238.944 18.0521C238.816 17.9241 238.666 17.8387 238.496 17.7961C238.325 17.7427 238.133 17.7161 237.92 17.7161H235.808L235.808 21.1401Z"/>
<path d="M242.719 27.4281L246.431 15.5881H249.423L253.135 27.4281H250.671L249.919 24.9481H245.887L245.151 27.4281H242.719ZM246.447 22.8201H249.359L247.903 17.6201L246.447 22.8201Z"/>
<path d="M254.112 27.4281L254.112 18.2921C254.112 17.7694 254.192 17.3321 254.352 16.9801C254.512 16.6281 254.725 16.3507 254.992 16.1481C255.258 15.9454 255.552 15.8014 255.872 15.7161C256.192 15.6307 256.506 15.5881 256.816 15.5881C257.2 15.5881 257.674 15.5934 258.24 15.6041C258.816 15.6041 259.424 15.6201 260.064 15.6521C260.714 15.6841 261.338 15.7321 261.936 15.7961L261.936 17.7801H257.472C257.141 17.7801 256.89 17.8707 256.72 18.0521C256.56 18.2227 256.48 18.4521 256.48 18.7401L256.48 20.7561L261.168 20.8841L261.168 22.7561L256.48 22.8841L256.48 27.4281H254.112Z"/>
<path d="M263.284 27.4281L263.284 18.2921C263.284 17.7694 263.364 17.3321 263.524 16.9801C263.684 16.6281 263.897 16.3507 264.164 16.1481C264.43 15.9454 264.723 15.8014 265.043 15.7161C265.363 15.6307 265.678 15.5881 265.987 15.5881C266.371 15.5881 266.846 15.5934 267.411 15.6041C267.987 15.6041 268.595 15.6201 269.235 15.6521C269.886 15.6841 270.51 15.7321 271.107 15.7961L271.108 17.7801H266.644C266.313 17.7801 266.062 17.8707 265.892 18.0521C265.732 18.2227 265.652 18.4521 265.652 18.7401L265.652 20.7561L270.34 20.8841L270.34 22.7561L265.652 22.8841L265.652 27.4281H263.284Z"/>
<path d="M272.612 27.4281L272.612 15.5881H274.98L274.98 27.4281H272.612Z"/>
<path d="M281.018 27.5241C280.324 27.5241 279.711 27.4441 279.178 27.2841C278.655 27.1241 278.207 26.8307 277.834 26.4041C277.471 25.9774 277.194 25.3694 277.002 24.5801C276.82 23.7801 276.73 22.7454 276.73 21.4761C276.73 20.2494 276.826 19.2467 277.018 18.4681C277.22 17.6787 277.508 17.0707 277.882 16.6441C278.255 16.2067 278.708 15.9027 279.241 15.7321C279.775 15.5614 280.377 15.4761 281.049 15.4761C281.583 15.4761 282.079 15.5081 282.537 15.5721C283.007 15.6254 283.428 15.6947 283.801 15.7801C284.175 15.8547 284.49 15.9401 284.746 16.0361L284.746 17.8761C284.554 17.8334 284.292 17.7907 283.962 17.7481C283.642 17.7054 283.274 17.6734 282.858 17.6521C282.442 17.6201 282.004 17.6041 281.546 17.6041C281.098 17.6041 280.714 17.6574 280.394 17.7641C280.084 17.8601 279.834 18.0467 279.642 18.3241C279.46 18.5907 279.322 18.9801 279.226 19.4921C279.14 20.0041 279.098 20.6707 279.098 21.4921C279.098 22.2814 279.135 22.9321 279.21 23.4441C279.295 23.9561 279.428 24.3561 279.61 24.6441C279.791 24.9214 280.036 25.1187 280.346 25.2361C280.666 25.3427 281.066 25.3961 281.546 25.3961C282.356 25.3961 283.012 25.3801 283.514 25.3481C284.026 25.3161 284.436 25.2787 284.746 25.2361L284.746 27.0601C284.458 27.1561 284.127 27.2414 283.754 27.3161C283.38 27.3801 282.97 27.4281 282.522 27.4601C282.074 27.5027 281.572 27.5241 281.018 27.5241Z"/>
</mask>
<path d="M161.832 27.4281L159 15.5881H161.448L163.352 23.9401L165.576 15.5881H167.752L169.96 23.9401L171.864 15.5881H174.312L171.48 27.4281H169.064L166.664 19.0761L164.248 27.4281H161.832Z" stroke="white" stroke-width="1.5" mask="url(#path-2-outside-1_1_6529)"/>
<path d="M178.086 27.5081C177.83 27.5081 177.536 27.4814 177.206 27.4281C176.875 27.3854 176.555 27.2787 176.246 27.1081C175.947 26.9374 175.696 26.6814 175.494 26.3401C175.302 25.9881 175.206 25.5081 175.206 24.9001L175.205 18.2921C175.205 17.7694 175.285 17.3321 175.445 16.9801C175.605 16.6281 175.819 16.3507 176.085 16.1481C176.352 15.9454 176.645 15.8014 176.965 15.7161C177.285 15.6307 177.6 15.5881 177.909 15.5881C178.709 15.5881 179.413 15.5987 180.021 15.6201C180.64 15.6414 181.195 15.6681 181.685 15.7001C182.176 15.7214 182.624 15.7534 183.029 15.7961L183.029 17.7801H178.613C178.283 17.7801 178.027 17.8601 177.845 18.0201C177.664 18.1801 177.573 18.4254 177.573 18.7561L177.573 20.4681L182.261 20.5961L182.261 22.4681L177.574 22.5961L177.574 24.2281C177.574 24.5054 177.616 24.7241 177.702 24.8841C177.798 25.0334 177.92 25.1401 178.07 25.2041C178.23 25.2574 178.395 25.2841 178.566 25.2841H183.03L183.03 27.2681C182.56 27.3214 182.038 27.3641 181.462 27.3961C180.896 27.4281 180.32 27.4547 179.734 27.4761C179.158 27.4974 178.608 27.5081 178.086 27.5081Z" stroke="white" stroke-width="1.5" mask="url(#path-2-outside-1_1_6529)"/>
<path d="M188.877 27.4281L188.877 15.5881H193.533C194.707 15.5881 195.56 15.8601 196.093 16.4041C196.637 16.9374 196.909 17.7001 196.909 18.6921C196.909 19.1614 196.84 19.5774 196.701 19.9401C196.573 20.2921 196.387 20.5854 196.141 20.8201C195.896 21.0441 195.603 21.1987 195.261 21.2841C195.517 21.3481 195.763 21.4494 195.997 21.5881C196.243 21.7267 196.461 21.9134 196.653 22.1481C196.856 22.3827 197.011 22.6707 197.117 23.0121C197.235 23.3427 197.293 23.7267 197.293 24.1641C197.293 24.9641 197.155 25.6041 196.877 26.0841C196.611 26.5641 196.211 26.9107 195.677 27.1241C195.155 27.3267 194.509 27.4281 193.741 27.4281H188.877ZM191.245 25.3001H193.677C193.955 25.3001 194.195 25.2467 194.397 25.1401C194.6 25.0334 194.755 24.8681 194.861 24.6441C194.979 24.4201 195.037 24.1214 195.037 23.7481C195.037 23.4387 194.979 23.1774 194.861 22.9641C194.744 22.7507 194.584 22.5854 194.381 22.4681C194.179 22.3507 193.944 22.2921 193.677 22.2921H191.245L191.245 25.3001ZM191.245 20.4681H193.549C193.891 20.4681 194.157 20.3454 194.349 20.1001C194.552 19.8441 194.653 19.5134 194.653 19.1081C194.664 18.5854 194.557 18.2227 194.333 18.0201C194.109 17.8174 193.837 17.7161 193.517 17.7161H191.245L191.245 20.4681Z" stroke="white" stroke-width="1.5" mask="url(#path-2-outside-1_1_6529)"/>
<path d="M203.373 27.5081C202.722 27.5081 202.114 27.4547 201.549 27.3481C200.983 27.2307 200.487 27.0334 200.061 26.7561C199.645 26.4681 199.319 26.0734 199.085 25.5721C198.861 25.0601 198.749 24.4094 198.749 23.6201L198.748 15.5881H201.116L201.117 23.6041C201.117 24.0414 201.202 24.3881 201.373 24.6441C201.554 24.9001 201.81 25.0867 202.141 25.2041C202.482 25.3214 202.893 25.3801 203.373 25.3801C203.842 25.3801 204.242 25.3214 204.573 25.2041C204.914 25.0867 205.17 24.9001 205.341 24.6441C205.522 24.3881 205.613 24.0414 205.613 23.6041L205.612 15.5881H207.996L207.997 23.6201C207.997 24.4094 207.879 25.0601 207.645 25.5721C207.41 26.0734 207.085 26.4681 206.669 26.7561C206.253 27.0334 205.762 27.2307 205.197 27.3481C204.642 27.4547 204.034 27.5081 203.373 27.5081Z" stroke="white" stroke-width="1.5" mask="url(#path-2-outside-1_1_6529)"/>
<path d="M212.693 27.4281L212.693 23.8441L209.125 15.5881H211.589L213.925 21.4281L216.245 15.5881H218.613L215.061 23.8441L215.061 27.4281H212.693Z" stroke="white" stroke-width="1.5" mask="url(#path-2-outside-1_1_6529)"/>
<path d="M226.529 27.4281L226.529 17.7161H223.281L223.281 15.5881H232.161L232.161 17.7161H228.897L228.897 27.4281H226.529Z" stroke="white" stroke-width="1.5" mask="url(#path-2-outside-1_1_6529)"/>
<path d="M233.44 27.4281L233.44 15.5881H238.336C238.805 15.5881 239.242 15.6467 239.648 15.7641C240.053 15.8707 240.41 16.0627 240.72 16.3401C241.029 16.6174 241.269 17.0014 241.44 17.4921C241.621 17.9827 241.712 18.6121 241.712 19.3801C241.712 19.9241 241.659 20.3881 241.552 20.7721C241.445 21.1561 241.301 21.4707 241.12 21.7161C240.949 21.9614 240.752 22.1587 240.528 22.3081C240.304 22.4574 240.075 22.5801 239.84 22.6761L242.048 27.4281H239.632L237.728 23.0441C237.6 23.0441 237.451 23.0441 237.28 23.0441C237.12 23.0334 236.955 23.0281 236.784 23.0281C236.613 23.0281 236.443 23.0281 236.272 23.0281C236.101 23.0281 235.947 23.0227 235.808 23.0121L235.808 27.4281H233.44ZM235.808 21.1401H237.92C238.133 21.1401 238.325 21.1134 238.496 21.0601C238.667 21.0067 238.816 20.9161 238.944 20.7881C239.072 20.6494 239.168 20.4681 239.232 20.2441C239.306 20.0201 239.344 19.7321 239.344 19.3801C239.344 19.0494 239.306 18.7774 239.232 18.5641C239.168 18.3401 239.072 18.1694 238.944 18.0521C238.816 17.9241 238.666 17.8387 238.496 17.7961C238.325 17.7427 238.133 17.7161 237.92 17.7161H235.808L235.808 21.1401Z" stroke="white" stroke-width="1.5" mask="url(#path-2-outside-1_1_6529)"/>
<path d="M242.719 27.4281L246.431 15.5881H249.423L253.135 27.4281H250.671L249.919 24.9481H245.887L245.151 27.4281H242.719ZM246.447 22.8201H249.359L247.903 17.6201L246.447 22.8201Z" stroke="white" stroke-width="1.5" mask="url(#path-2-outside-1_1_6529)"/>
<path d="M254.112 27.4281L254.112 18.2921C254.112 17.7694 254.192 17.3321 254.352 16.9801C254.512 16.6281 254.725 16.3507 254.992 16.1481C255.258 15.9454 255.552 15.8014 255.872 15.7161C256.192 15.6307 256.506 15.5881 256.816 15.5881C257.2 15.5881 257.674 15.5934 258.24 15.6041C258.816 15.6041 259.424 15.6201 260.064 15.6521C260.714 15.6841 261.338 15.7321 261.936 15.7961L261.936 17.7801H257.472C257.141 17.7801 256.89 17.8707 256.72 18.0521C256.56 18.2227 256.48 18.4521 256.48 18.7401L256.48 20.7561L261.168 20.8841L261.168 22.7561L256.48 22.8841L256.48 27.4281H254.112Z" stroke="white" stroke-width="1.5" mask="url(#path-2-outside-1_1_6529)"/>
<path d="M263.284 27.4281L263.284 18.2921C263.284 17.7694 263.364 17.3321 263.524 16.9801C263.684 16.6281 263.897 16.3507 264.164 16.1481C264.43 15.9454 264.723 15.8014 265.043 15.7161C265.363 15.6307 265.678 15.5881 265.987 15.5881C266.371 15.5881 266.846 15.5934 267.411 15.6041C267.987 15.6041 268.595 15.6201 269.235 15.6521C269.886 15.6841 270.51 15.7321 271.107 15.7961L271.108 17.7801H266.644C266.313 17.7801 266.062 17.8707 265.892 18.0521C265.732 18.2227 265.652 18.4521 265.652 18.7401L265.652 20.7561L270.34 20.8841L270.34 22.7561L265.652 22.8841L265.652 27.4281H263.284Z" stroke="white" stroke-width="1.5" mask="url(#path-2-outside-1_1_6529)"/>
<path d="M272.612 27.4281L272.612 15.5881H274.98L274.98 27.4281H272.612Z" stroke="white" stroke-width="1.5" mask="url(#path-2-outside-1_1_6529)"/>
<path d="M281.018 27.5241C280.324 27.5241 279.711 27.4441 279.178 27.2841C278.655 27.1241 278.207 26.8307 277.834 26.4041C277.471 25.9774 277.194 25.3694 277.002 24.5801C276.82 23.7801 276.73 22.7454 276.73 21.4761C276.73 20.2494 276.826 19.2467 277.018 18.4681C277.22 17.6787 277.508 17.0707 277.882 16.6441C278.255 16.2067 278.708 15.9027 279.241 15.7321C279.775 15.5614 280.377 15.4761 281.049 15.4761C281.583 15.4761 282.079 15.5081 282.537 15.5721C283.007 15.6254 283.428 15.6947 283.801 15.7801C284.175 15.8547 284.49 15.9401 284.746 16.0361L284.746 17.8761C284.554 17.8334 284.292 17.7907 283.962 17.7481C283.642 17.7054 283.274 17.6734 282.858 17.6521C282.442 17.6201 282.004 17.6041 281.546 17.6041C281.098 17.6041 280.714 17.6574 280.394 17.7641C280.084 17.8601 279.834 18.0467 279.642 18.3241C279.46 18.5907 279.322 18.9801 279.226 19.4921C279.14 20.0041 279.098 20.6707 279.098 21.4921C279.098 22.2814 279.135 22.9321 279.21 23.4441C279.295 23.9561 279.428 24.3561 279.61 24.6441C279.791 24.9214 280.036 25.1187 280.346 25.2361C280.666 25.3427 281.066 25.3961 281.546 25.3961C282.356 25.3961 283.012 25.3801 283.514 25.3481C284.026 25.3161 284.436 25.2787 284.746 25.2361L284.746 27.0601C284.458 27.1561 284.127 27.2414 283.754 27.3161C283.38 27.3801 282.97 27.4281 282.522 27.4601C282.074 27.5027 281.572 27.5241 281.018 27.5241Z" stroke="white" stroke-width="1.5" mask="url(#path-2-outside-1_1_6529)"/>
<path d="M319.85 27L317.018 15.16H319.466L321.37 23.512L323.594 15.16H325.77L327.978 23.512L329.882 15.16H332.33L329.498 27H327.082L324.682 18.648L322.266 27H319.85ZM336.103 27.08C335.847 27.08 335.554 27.0533 335.223 27C334.892 26.9573 334.572 26.8507 334.263 26.68C333.964 26.5093 333.714 26.2533 333.511 25.912C333.319 25.56 333.223 25.08 333.223 24.472L333.223 17.864C333.223 17.3413 333.303 16.904 333.463 16.552C333.623 16.2 333.836 15.9227 334.103 15.72C334.369 15.5173 334.663 15.3733 334.983 15.288C335.303 15.2027 335.617 15.16 335.927 15.16C336.727 15.16 337.431 15.1707 338.039 15.192C338.657 15.2133 339.212 15.24 339.703 15.272C340.193 15.2933 340.641 15.3253 341.047 15.368L341.047 17.352H336.631C336.3 17.352 336.044 17.432 335.863 17.592C335.682 17.752 335.591 17.9973 335.591 18.328L335.591 20.04L340.279 20.168L340.279 22.04L335.591 22.168L335.591 23.8C335.591 24.0773 335.634 24.296 335.719 24.456C335.815 24.6053 335.938 24.712 336.087 24.776C336.247 24.8293 336.412 24.856 336.583 24.856H341.047L341.047 26.84C340.578 26.8933 340.055 26.936 339.479 26.968C338.914 27 338.338 27.0267 337.751 27.048C337.175 27.0693 336.626 27.08 336.103 27.08ZM346.895 27L346.895 15.16H351.551C352.724 15.16 353.577 15.432 354.111 15.976C354.655 16.5093 354.927 17.272 354.927 18.264C354.927 18.7333 354.857 19.1493 354.719 19.512C354.591 19.864 354.404 20.1573 354.159 20.392C353.913 20.616 353.62 20.7707 353.279 20.856C353.535 20.92 353.78 21.0213 354.015 21.16C354.26 21.2987 354.479 21.4853 354.671 21.72C354.873 21.9547 355.028 22.2427 355.135 22.584C355.252 22.9147 355.311 23.2987 355.311 23.736C355.311 24.536 355.172 25.176 354.895 25.656C354.628 26.136 354.228 26.4827 353.695 26.696C353.172 26.8987 352.527 27 351.759 27H346.895ZM349.263 24.872H351.695C351.972 24.872 352.212 24.8187 352.415 24.712C352.618 24.6053 352.772 24.44 352.879 24.216C352.996 23.992 353.055 23.6933 353.055 23.32C353.055 23.0107 352.996 22.7493 352.879 22.536C352.761 22.3227 352.601 22.1573 352.399 22.04C352.196 21.9227 351.961 21.864 351.695 21.864H349.263L349.263 24.872ZM349.263 20.04H351.567C351.908 20.04 352.175 19.9173 352.367 19.672C352.569 19.416 352.671 19.0853 352.671 18.68C352.681 18.1573 352.575 17.7947 352.351 17.592C352.127 17.3893 351.855 17.288 351.535 17.288H349.263L349.263 20.04ZM361.39 27.08C360.739 27.08 360.131 27.0267 359.566 26.92C359.001 26.8027 358.505 26.6053 358.078 26.328C357.662 26.04 357.337 25.6453 357.102 25.144C356.878 24.632 356.766 23.9813 356.766 23.192L356.766 15.16H359.134L359.134 23.176C359.134 23.6133 359.219 23.96 359.39 24.216C359.571 24.472 359.827 24.6587 360.158 24.776C360.499 24.8933 360.91 24.952 361.39 24.952C361.859 24.952 362.259 24.8933 362.59 24.776C362.931 24.6587 363.187 24.472 363.358 24.216C363.539 23.96 363.63 23.6133 363.63 23.176L363.63 15.16H366.014L366.014 23.192C366.014 23.9813 365.897 24.632 365.662 25.144C365.427 25.6453 365.102 26.04 364.686 26.328C364.27 26.6053 363.779 26.8027 363.214 26.92C362.659 27.0267 362.051 27.08 361.39 27.08ZM370.711 27L370.711 23.416L367.143 15.16H369.607L371.943 21L374.263 15.16H376.631L373.079 23.416L373.079 27H370.711ZM384.547 27L384.547 17.288H381.299L381.299 15.16H390.179L390.179 17.288H386.915L386.915 27H384.547ZM391.457 27L391.457 15.16H396.353C396.822 15.16 397.26 15.2187 397.665 15.336C398.071 15.4427 398.428 15.6347 398.737 15.912C399.047 16.1893 399.287 16.5733 399.457 17.064C399.639 17.5547 399.729 18.184 399.729 18.952C399.729 19.496 399.676 19.96 399.569 20.344C399.463 20.728 399.319 21.0427 399.137 21.288C398.967 21.5333 398.769 21.7307 398.545 21.88C398.321 22.0293 398.092 22.152 397.857 22.248L400.065 27H397.649L395.745 22.616C395.617 22.616 395.468 22.616 395.297 22.616C395.137 22.6053 394.972 22.6 394.801 22.6C394.631 22.6 394.46 22.6 394.289 22.6C394.119 22.6 393.964 22.5947 393.825 22.584L393.825 27H391.457ZM393.825 20.712H395.937C396.151 20.712 396.343 20.6853 396.513 20.632C396.684 20.5787 396.833 20.488 396.961 20.36C397.089 20.2213 397.185 20.04 397.249 19.816C397.324 19.592 397.361 19.304 397.361 18.952C397.361 18.6213 397.324 18.3493 397.249 18.136C397.185 17.912 397.089 17.7413 396.961 17.624C396.833 17.496 396.684 17.4107 396.513 17.368C396.343 17.3147 396.151 17.288 395.937 17.288H393.825L393.825 20.712ZM400.737 27L404.448 15.16H407.44L411.153 27H408.689L407.937 24.52H403.905L403.169 27H400.737ZM404.465 22.392H407.377L405.92 17.192L404.465 22.392ZM412.129 27L412.129 17.864C412.129 17.3413 412.209 16.904 412.369 16.552C412.529 16.2 412.742 15.9227 413.009 15.72C413.276 15.5173 413.569 15.3733 413.889 15.288C414.209 15.2027 414.524 15.16 414.833 15.16C415.217 15.16 415.692 15.1653 416.257 15.176C416.833 15.176 417.441 15.192 418.081 15.224C418.732 15.256 419.356 15.304 419.953 15.368L419.953 17.352H415.489C415.158 17.352 414.908 17.4427 414.737 17.624C414.577 17.7947 414.497 18.024 414.497 18.312L414.497 20.328L419.185 20.456L419.185 22.328L414.497 22.456L414.497 27H412.129ZM421.301 27L421.301 17.864C421.301 17.3413 421.381 16.904 421.541 16.552C421.701 16.2 421.914 15.9227 422.181 15.72C422.448 15.5173 422.741 15.3733 423.061 15.288C423.381 15.2027 423.696 15.16 424.005 15.16C424.389 15.16 424.864 15.1653 425.429 15.176C426.005 15.176 426.613 15.192 427.253 15.224C427.904 15.256 428.528 15.304 429.125 15.368L429.125 17.352H424.661C424.33 17.352 424.08 17.4427 423.909 17.624C423.749 17.7947 423.669 18.024 423.669 18.312L423.669 20.328L428.357 20.456L428.357 22.328L423.669 22.456L423.669 27H421.301ZM430.629 27L430.629 15.16H432.997L432.997 27H430.629ZM439.035 27.096C438.342 27.096 437.728 27.016 437.195 26.856C436.672 26.696 436.224 26.4027 435.851 25.976C435.488 25.5493 435.211 24.9413 435.019 24.152C434.838 23.352 434.747 22.3173 434.747 21.048C434.747 19.8213 434.843 18.8187 435.035 18.04C435.238 17.2507 435.526 16.6427 435.899 16.216C436.272 15.7787 436.726 15.4747 437.259 15.304C437.792 15.1333 438.395 15.048 439.067 15.048C439.6 15.048 440.096 15.08 440.555 15.144C441.024 15.1973 441.446 15.2667 441.819 15.352C442.192 15.4267 442.507 15.512 442.763 15.608L442.763 17.448C442.571 17.4053 442.31 17.3627 441.979 17.32C441.659 17.2773 441.291 17.2453 440.875 17.224C440.459 17.192 440.022 17.176 439.563 17.176C439.115 17.176 438.731 17.2293 438.411 17.336C438.102 17.432 437.851 17.6187 437.659 17.896C437.478 18.1627 437.339 18.552 437.243 19.064C437.158 19.576 437.115 20.2427 437.115 21.064C437.115 21.8533 437.152 22.504 437.227 23.016C437.312 23.528 437.446 23.928 437.627 24.216C437.808 24.4933 438.054 24.6907 438.363 24.808C438.683 24.9147 439.083 24.968 439.563 24.968C440.374 24.968 441.03 24.952 441.531 24.92C442.043 24.888 442.454 24.8507 442.763 24.808L442.763 26.632C442.475 26.728 442.144 26.8133 441.771 26.888C441.398 26.952 440.987 27 440.539 27.032C440.091 27.0747 439.59 27.096 439.035 27.096Z" fill="white"/>
<mask id="path-4-outside-2_1_6529" maskUnits="userSpaceOnUse" x="474.746" y="14.4761" width="128" height="14" fill="black">
<rect fill="white" x="474.746" y="14.4761" width="128" height="14"/>
<path d="M478.578 27.4281L475.746 15.5881H478.194L480.098 23.9401L482.322 15.5881H484.498L486.706 23.9401L488.61 15.5881H491.058L488.226 27.4281H485.81L483.41 19.0761L480.994 27.4281H478.578Z"/>
<path d="M494.831 27.5081C494.575 27.5081 494.282 27.4814 493.951 27.4281C493.62 27.3854 493.3 27.2787 492.991 27.1081C492.692 26.9374 492.442 26.6814 492.239 26.3401C492.047 25.9881 491.951 25.5081 491.951 24.9001L491.951 18.2921C491.951 17.7694 492.031 17.3321 492.191 16.9801C492.351 16.6281 492.564 16.3507 492.831 16.1481C493.097 15.9454 493.391 15.8014 493.711 15.7161C494.031 15.6307 494.345 15.5881 494.655 15.5881C495.455 15.5881 496.159 15.5987 496.767 15.6201C497.385 15.6414 497.94 15.6681 498.431 15.7001C498.921 15.7214 499.369 15.7534 499.775 15.7961L499.775 17.7801H495.359C495.028 17.7801 494.772 17.8601 494.591 18.0201C494.409 18.1801 494.319 18.4254 494.319 18.7561L494.319 20.4681L499.007 20.5961L499.007 22.4681L494.319 22.5961L494.319 24.2281C494.319 24.5054 494.362 24.7241 494.447 24.8841C494.543 25.0334 494.666 25.1401 494.815 25.2041C494.975 25.2574 495.14 25.2841 495.311 25.2841H499.775L499.775 27.2681C499.306 27.3214 498.783 27.3641 498.207 27.3961C497.642 27.4281 497.066 27.4547 496.479 27.4761C495.903 27.4974 495.354 27.5081 494.831 27.5081Z"/>
<path d="M505.623 27.4281L505.623 15.5881H510.279C511.452 15.5881 512.305 15.8601 512.839 16.4041C513.383 16.9374 513.655 17.7001 513.655 18.6921C513.655 19.1614 513.585 19.5774 513.447 19.9401C513.319 20.2921 513.132 20.5854 512.887 20.8201C512.641 21.0441 512.348 21.1987 512.007 21.2841C512.263 21.3481 512.508 21.4494 512.743 21.5881C512.988 21.7267 513.207 21.9134 513.399 22.1481C513.601 22.3827 513.756 22.6707 513.863 23.0121C513.98 23.3427 514.039 23.7267 514.039 24.1641C514.039 24.9641 513.9 25.6041 513.623 26.0841C513.356 26.5641 512.956 26.9107 512.423 27.1241C511.9 27.3267 511.255 27.4281 510.487 27.4281H505.623ZM507.991 25.3001H510.423C510.7 25.3001 510.94 25.2467 511.143 25.1401C511.345 25.0334 511.5 24.8681 511.607 24.6441C511.724 24.4201 511.783 24.1214 511.783 23.7481C511.783 23.4387 511.724 23.1774 511.607 22.9641C511.489 22.7507 511.329 22.5854 511.127 22.4681C510.924 22.3507 510.689 22.2921 510.423 22.2921H507.991L507.991 25.3001ZM507.991 20.4681H510.295C510.636 20.4681 510.903 20.3454 511.095 20.1001C511.297 19.8441 511.399 19.5134 511.399 19.1081C511.409 18.5854 511.303 18.2227 511.079 18.0201C510.855 17.8174 510.583 17.7161 510.263 17.7161H507.991L507.991 20.4681Z"/>
<path d="M520.118 27.5081C519.467 27.5081 518.859 27.4547 518.294 27.3481C517.729 27.2307 517.233 27.0334 516.806 26.7561C516.39 26.4681 516.065 26.0734 515.83 25.5721C515.606 25.0601 515.494 24.4094 515.494 23.6201L515.494 15.5881H517.862L517.862 23.6041C517.862 24.0414 517.947 24.3881 518.118 24.6441C518.299 24.9001 518.555 25.0867 518.886 25.2041C519.227 25.3214 519.638 25.3801 520.118 25.3801C520.587 25.3801 520.987 25.3214 521.318 25.2041C521.659 25.0867 521.915 24.9001 522.086 24.6441C522.267 24.3881 522.358 24.0414 522.358 23.6041L522.358 15.5881H524.742L524.742 23.6201C524.742 24.4094 524.625 25.0601 524.39 25.5721C524.155 26.0734 523.83 26.4681 523.414 26.7561C522.998 27.0334 522.507 27.2307 521.942 27.3481C521.387 27.4547 520.779 27.5081 520.118 27.5081Z"/>
<path d="M529.439 27.4281L529.439 23.8441L525.871 15.5881H528.335L530.671 21.4281L532.991 15.5881H535.359L531.807 23.8441L531.807 27.4281H529.439Z"/>
<path d="M543.275 27.4281L543.275 17.7161H540.027L540.026 15.5881H548.906L548.907 17.7161H545.643L545.643 27.4281H543.275Z"/>
<path d="M550.185 27.4281L550.185 15.5881H555.081C555.55 15.5881 555.988 15.6467 556.393 15.7641C556.798 15.8707 557.156 16.0627 557.465 16.3401C557.774 16.6174 558.014 17.0014 558.185 17.4921C558.366 17.9827 558.457 18.6121 558.457 19.3801C558.457 19.9241 558.404 20.3881 558.297 20.7721C558.191 21.1561 558.047 21.4707 557.865 21.7161C557.695 21.9614 557.497 22.1587 557.273 22.3081C557.049 22.4574 556.82 22.5801 556.585 22.6761L558.793 27.4281H556.377L554.473 23.0441C554.345 23.0441 554.196 23.0441 554.025 23.0441C553.865 23.0334 553.7 23.0281 553.529 23.0281C553.359 23.0281 553.188 23.0281 553.017 23.0281C552.847 23.0281 552.692 23.0227 552.553 23.0121L552.553 27.4281H550.185ZM552.553 21.1401H554.665C554.879 21.1401 555.071 21.1134 555.241 21.0601C555.412 21.0067 555.561 20.9161 555.689 20.7881C555.817 20.6494 555.913 20.4681 555.977 20.2441C556.052 20.0201 556.089 19.7321 556.089 19.3801C556.089 19.0494 556.052 18.7774 555.977 18.5641C555.913 18.3401 555.817 18.1694 555.689 18.0521C555.561 17.9241 555.412 17.8387 555.241 17.7961C555.07 17.7427 554.878 17.7161 554.665 17.7161H552.553L552.553 21.1401Z"/>
<path d="M559.465 27.4281L563.176 15.5881H566.168L569.881 27.4281H567.417L566.665 24.9481H562.633L561.897 27.4281H559.465ZM563.192 22.8201H566.104L564.648 17.6201L563.192 22.8201Z"/>
<path d="M570.857 27.4281L570.857 18.2921C570.857 17.7694 570.937 17.3321 571.097 16.9801C571.257 16.6281 571.47 16.3507 571.737 16.1481C572.004 15.9454 572.297 15.8014 572.617 15.7161C572.937 15.6307 573.252 15.5881 573.561 15.5881C573.945 15.5881 574.42 15.5934 574.985 15.6041C575.561 15.6041 576.169 15.6201 576.809 15.6521C577.46 15.6841 578.084 15.7321 578.681 15.7961L578.681 17.7801H574.217C573.886 17.7801 573.636 17.8707 573.465 18.0521C573.305 18.2227 573.225 18.4521 573.225 18.7401L573.225 20.7561L577.913 20.8841L577.913 22.7561L573.225 22.8841L573.225 27.4281H570.857Z"/>
<path d="M580.029 27.4281L580.029 18.2921C580.029 17.7694 580.109 17.3321 580.269 16.9801C580.429 16.6281 580.642 16.3507 580.909 16.1481C581.176 15.9454 581.469 15.8014 581.789 15.7161C582.109 15.6307 582.424 15.5881 582.733 15.5881C583.117 15.5881 583.592 15.5934 584.157 15.6041C584.733 15.6041 585.341 15.6201 585.981 15.6521C586.632 15.6841 587.256 15.7321 587.853 15.7961L587.853 17.7801H583.389C583.058 17.7801 582.808 17.8707 582.637 18.0521C582.477 18.2227 582.397 18.4521 582.397 18.7401L582.397 20.7561L587.085 20.8841L587.085 22.7561L582.397 22.8841L582.397 27.4281H580.029Z"/>
<path d="M589.357 27.4281L589.357 15.5881H591.725L591.725 27.4281H589.357Z"/>
<path d="M597.763 27.5241C597.07 27.5241 596.456 27.4441 595.923 27.2841C595.4 27.1241 594.952 26.8307 594.579 26.4041C594.216 25.9774 593.939 25.3694 593.747 24.5801C593.566 23.7801 593.475 22.7454 593.475 21.4761C593.475 20.2494 593.571 19.2467 593.763 18.4681C593.966 17.6787 594.254 17.0707 594.627 16.6441C595 16.2067 595.454 15.9027 595.987 15.7321C596.52 15.5614 597.123 15.4761 597.795 15.4761C598.328 15.4761 598.824 15.5081 599.283 15.5721C599.752 15.6254 600.174 15.6947 600.547 15.7801C600.92 15.8547 601.235 15.9401 601.491 16.0361L601.491 17.8761C601.299 17.8334 601.038 17.7907 600.707 17.7481C600.387 17.7054 600.019 17.6734 599.603 17.6521C599.187 17.6201 598.75 17.6041 598.291 17.6041C597.843 17.6041 597.459 17.6574 597.139 17.7641C596.83 17.8601 596.579 18.0467 596.387 18.3241C596.206 18.5907 596.067 18.9801 595.971 19.4921C595.886 20.0041 595.843 20.6707 595.843 21.4921C595.843 22.2814 595.88 22.9321 595.955 23.4441C596.04 23.9561 596.174 24.3561 596.355 24.6441C596.536 24.9214 596.782 25.1187 597.091 25.2361C597.411 25.3427 597.811 25.3961 598.291 25.3961C599.102 25.3961 599.758 25.3801 600.259 25.3481C600.771 25.3161 601.182 25.2787 601.491 25.2361L601.491 27.0601C601.203 27.1561 600.872 27.2414 600.499 27.3161C600.126 27.3801 599.715 27.4281 599.267 27.4601C598.819 27.5027 598.318 27.5241 597.763 27.5241Z"/>
</mask>
<path d="M478.578 27.4281L475.746 15.5881H478.194L480.098 23.9401L482.322 15.5881H484.498L486.706 23.9401L488.61 15.5881H491.058L488.226 27.4281H485.81L483.41 19.0761L480.994 27.4281H478.578Z" stroke="white" stroke-width="1.5" mask="url(#path-4-outside-2_1_6529)"/>
<path d="M494.831 27.5081C494.575 27.5081 494.282 27.4814 493.951 27.4281C493.62 27.3854 493.3 27.2787 492.991 27.1081C492.692 26.9374 492.442 26.6814 492.239 26.3401C492.047 25.9881 491.951 25.5081 491.951 24.9001L491.951 18.2921C491.951 17.7694 492.031 17.3321 492.191 16.9801C492.351 16.6281 492.564 16.3507 492.831 16.1481C493.097 15.9454 493.391 15.8014 493.711 15.7161C494.031 15.6307 494.345 15.5881 494.655 15.5881C495.455 15.5881 496.159 15.5987 496.767 15.6201C497.385 15.6414 497.94 15.6681 498.431 15.7001C498.921 15.7214 499.369 15.7534 499.775 15.7961L499.775 17.7801H495.359C495.028 17.7801 494.772 17.8601 494.591 18.0201C494.409 18.1801 494.319 18.4254 494.319 18.7561L494.319 20.4681L499.007 20.5961L499.007 22.4681L494.319 22.5961L494.319 24.2281C494.319 24.5054 494.362 24.7241 494.447 24.8841C494.543 25.0334 494.666 25.1401 494.815 25.2041C494.975 25.2574 495.14 25.2841 495.311 25.2841H499.775L499.775 27.2681C499.306 27.3214 498.783 27.3641 498.207 27.3961C497.642 27.4281 497.066 27.4547 496.479 27.4761C495.903 27.4974 495.354 27.5081 494.831 27.5081Z" stroke="white" stroke-width="1.5" mask="url(#path-4-outside-2_1_6529)"/>
<path d="M505.623 27.4281L505.623 15.5881H510.279C511.452 15.5881 512.305 15.8601 512.839 16.4041C513.383 16.9374 513.655 17.7001 513.655 18.6921C513.655 19.1614 513.585 19.5774 513.447 19.9401C513.319 20.2921 513.132 20.5854 512.887 20.8201C512.641 21.0441 512.348 21.1987 512.007 21.2841C512.263 21.3481 512.508 21.4494 512.743 21.5881C512.988 21.7267 513.207 21.9134 513.399 22.1481C513.601 22.3827 513.756 22.6707 513.863 23.0121C513.98 23.3427 514.039 23.7267 514.039 24.1641C514.039 24.9641 513.9 25.6041 513.623 26.0841C513.356 26.5641 512.956 26.9107 512.423 27.1241C511.9 27.3267 511.255 27.4281 510.487 27.4281H505.623ZM507.991 25.3001H510.423C510.7 25.3001 510.94 25.2467 511.143 25.1401C511.345 25.0334 511.5 24.8681 511.607 24.6441C511.724 24.4201 511.783 24.1214 511.783 23.7481C511.783 23.4387 511.724 23.1774 511.607 22.9641C511.489 22.7507 511.329 22.5854 511.127 22.4681C510.924 22.3507 510.689 22.2921 510.423 22.2921H507.991L507.991 25.3001ZM507.991 20.4681H510.295C510.636 20.4681 510.903 20.3454 511.095 20.1001C511.297 19.8441 511.399 19.5134 511.399 19.1081C511.409 18.5854 511.303 18.2227 511.079 18.0201C510.855 17.8174 510.583 17.7161 510.263 17.7161H507.991L507.991 20.4681Z" stroke="white" stroke-width="1.5" mask="url(#path-4-outside-2_1_6529)"/>
<path d="M520.118 27.5081C519.467 27.5081 518.859 27.4547 518.294 27.3481C517.729 27.2307 517.233 27.0334 516.806 26.7561C516.39 26.4681 516.065 26.0734 515.83 25.5721C515.606 25.0601 515.494 24.4094 515.494 23.6201L515.494 15.5881H517.862L517.862 23.6041C517.862 24.0414 517.947 24.3881 518.118 24.6441C518.299 24.9001 518.555 25.0867 518.886 25.2041C519.227 25.3214 519.638 25.3801 520.118 25.3801C520.587 25.3801 520.987 25.3214 521.318 25.2041C521.659 25.0867 521.915 24.9001 522.086 24.6441C522.267 24.3881 522.358 24.0414 522.358 23.6041L522.358 15.5881H524.742L524.742 23.6201C524.742 24.4094 524.625 25.0601 524.39 25.5721C524.155 26.0734 523.83 26.4681 523.414 26.7561C522.998 27.0334 522.507 27.2307 521.942 27.3481C521.387 27.4547 520.779 27.5081 520.118 27.5081Z" stroke="white" stroke-width="1.5" mask="url(#path-4-outside-2_1_6529)"/>
<path d="M529.439 27.4281L529.439 23.8441L525.871 15.5881H528.335L530.671 21.4281L532.991 15.5881H535.359L531.807 23.8441L531.807 27.4281H529.439Z" stroke="white" stroke-width="1.5" mask="url(#path-4-outside-2_1_6529)"/>
<path d="M543.275 27.4281L543.275 17.7161H540.027L540.026 15.5881H548.906L548.907 17.7161H545.643L545.643 27.4281H543.275Z" stroke="white" stroke-width="1.5" mask="url(#path-4-outside-2_1_6529)"/>
<path d="M550.185 27.4281L550.185 15.5881H555.081C555.55 15.5881 555.988 15.6467 556.393 15.7641C556.798 15.8707 557.156 16.0627 557.465 16.3401C557.774 16.6174 558.014 17.0014 558.185 17.4921C558.366 17.9827 558.457 18.6121 558.457 19.3801C558.457 19.9241 558.404 20.3881 558.297 20.7721C558.191 21.1561 558.047 21.4707 557.865 21.7161C557.695 21.9614 557.497 22.1587 557.273 22.3081C557.049 22.4574 556.82 22.5801 556.585 22.6761L558.793 27.4281H556.377L554.473 23.0441C554.345 23.0441 554.196 23.0441 554.025 23.0441C553.865 23.0334 553.7 23.0281 553.529 23.0281C553.359 23.0281 553.188 23.0281 553.017 23.0281C552.847 23.0281 552.692 23.0227 552.553 23.0121L552.553 27.4281H550.185ZM552.553 21.1401H554.665C554.879 21.1401 555.071 21.1134 555.241 21.0601C555.412 21.0067 555.561 20.9161 555.689 20.7881C555.817 20.6494 555.913 20.4681 555.977 20.2441C556.052 20.0201 556.089 19.7321 556.089 19.3801C556.089 19.0494 556.052 18.7774 555.977 18.5641C555.913 18.3401 555.817 18.1694 555.689 18.0521C555.561 17.9241 555.412 17.8387 555.241 17.7961C555.07 17.7427 554.878 17.7161 554.665 17.7161H552.553L552.553 21.1401Z" stroke="white" stroke-width="1.5" mask="url(#path-4-outside-2_1_6529)"/>
<path d="M559.465 27.4281L563.176 15.5881H566.168L569.881 27.4281H567.417L566.665 24.9481H562.633L561.897 27.4281H559.465ZM563.192 22.8201H566.104L564.648 17.6201L563.192 22.8201Z" stroke="white" stroke-width="1.5" mask="url(#path-4-outside-2_1_6529)"/>
<path d="M570.857 27.4281L570.857 18.2921C570.857 17.7694 570.937 17.3321 571.097 16.9801C571.257 16.6281 571.47 16.3507 571.737 16.1481C572.004 15.9454 572.297 15.8014 572.617 15.7161C572.937 15.6307 573.252 15.5881 573.561 15.5881C573.945 15.5881 574.42 15.5934 574.985 15.6041C575.561 15.6041 576.169 15.6201 576.809 15.6521C577.46 15.6841 578.084 15.7321 578.681 15.7961L578.681 17.7801H574.217C573.886 17.7801 573.636 17.8707 573.465 18.0521C573.305 18.2227 573.225 18.4521 573.225 18.7401L573.225 20.7561L577.913 20.8841L577.913 22.7561L573.225 22.8841L573.225 27.4281H570.857Z" stroke="white" stroke-width="1.5" mask="url(#path-4-outside-2_1_6529)"/>
<path d="M580.029 27.4281L580.029 18.2921C580.029 17.7694 580.109 17.3321 580.269 16.9801C580.429 16.6281 580.642 16.3507 580.909 16.1481C581.176 15.9454 581.469 15.8014 581.789 15.7161C582.109 15.6307 582.424 15.5881 582.733 15.5881C583.117 15.5881 583.592 15.5934 584.157 15.6041C584.733 15.6041 585.341 15.6201 585.981 15.6521C586.632 15.6841 587.256 15.7321 587.853 15.7961L587.853 17.7801H583.389C583.058 17.7801 582.808 17.8707 582.637 18.0521C582.477 18.2227 582.397 18.4521 582.397 18.7401L582.397 20.7561L587.085 20.8841L587.085 22.7561L582.397 22.8841L582.397 27.4281H580.029Z" stroke="white" stroke-width="1.5" mask="url(#path-4-outside-2_1_6529)"/>
<path d="M589.357 27.4281L589.357 15.5881H591.725L591.725 27.4281H589.357Z" stroke="white" stroke-width="1.5" mask="url(#path-4-outside-2_1_6529)"/>
<path d="M597.763 27.5241C597.07 27.5241 596.456 27.4441 595.923 27.2841C595.4 27.1241 594.952 26.8307 594.579 26.4041C594.216 25.9774 593.939 25.3694 593.747 24.5801C593.566 23.7801 593.475 22.7454 593.475 21.4761C593.475 20.2494 593.571 19.2467 593.763 18.4681C593.966 17.6787 594.254 17.0707 594.627 16.6441C595 16.2067 595.454 15.9027 595.987 15.7321C596.52 15.5614 597.123 15.4761 597.795 15.4761C598.328 15.4761 598.824 15.5081 599.283 15.5721C599.752 15.6254 600.174 15.6947 600.547 15.7801C600.92 15.8547 601.235 15.9401 601.491 16.0361L601.491 17.8761C601.299 17.8334 601.038 17.7907 600.707 17.7481C600.387 17.7054 600.019 17.6734 599.603 17.6521C599.187 17.6201 598.75 17.6041 598.291 17.6041C597.843 17.6041 597.459 17.6574 597.139 17.7641C596.83 17.8601 596.579 18.0467 596.387 18.3241C596.206 18.5907 596.067 18.9801 595.971 19.4921C595.886 20.0041 595.843 20.6707 595.843 21.4921C595.843 22.2814 595.88 22.9321 595.955 23.4441C596.04 23.9561 596.174 24.3561 596.355 24.6441C596.536 24.9214 596.782 25.1187 597.091 25.2361C597.411 25.3427 597.811 25.3961 598.291 25.3961C599.102 25.3961 599.758 25.3801 600.259 25.3481C600.771 25.3161 601.182 25.2787 601.491 25.2361L601.491 27.0601C601.203 27.1561 600.872 27.2414 600.499 27.3161C600.126 27.3801 599.715 27.4281 599.267 27.4601C598.819 27.5027 598.318 27.5241 597.763 27.5241Z" stroke="white" stroke-width="1.5" mask="url(#path-4-outside-2_1_6529)"/>
</g>
<defs>
<clipPath id="clip0_1_6529">
<rect width="475.999" height="43" fill="white" transform="matrix(1 0 1.85068e-05 1 0 0)"/>
</clipPath>
</defs>
</svg>
