<svg width="146" height="36" viewBox="0 0 146 36" fill="none" xmlns="http://www.w3.org/2000/svg">
<path d="M135.658 35.7V29.484L136.624 31.983L130.051 21H134.44L139.186 28.959H136.645L141.412 21H145.444L138.892 31.983L139.816 29.484V35.7H135.658Z" fill="#803A6A"/>
<path d="M122.331 27.447H129.114V30.66H122.331V27.447ZM122.625 35.7H118.467V21H129.996V24.213H122.625V35.7Z" fill="#803A6A"/>
<path d="M111.351 35.7V21H115.509V35.7H111.351Z" fill="#803A6A"/>
<path d="M99.2771 32.445L99.0461 27.783L105.367 21H109.945L103.645 27.825L101.335 30.24L99.2771 32.445ZM95.5601 35.7V21H99.6761V35.7H95.5601ZM105.43 35.7L100.642 29.631L103.351 26.733L110.26 35.7H105.43Z" fill="#DF286A"/>
<path d="M80.0151 35.7V21H86.7351C88.0791 21 89.2341 21.217 90.2001 21.651C91.1801 22.085 91.9361 22.715 92.4681 23.541C93.0001 24.353 93.2661 25.319 93.2661 26.439C93.2661 27.545 93.0001 28.504 92.4681 29.316C91.9361 30.114 91.1801 30.73 90.2001 31.164C89.2341 31.584 88.0791 31.794 86.7351 31.794H82.3251L84.1731 30.051V35.7H80.0151ZM89.1081 35.7L85.4541 30.345H89.8851L93.5601 35.7H89.1081ZM84.1731 30.492L82.3251 28.581H86.4831C87.3511 28.581 87.9951 28.392 88.4151 28.014C88.8491 27.636 89.0661 27.111 89.0661 26.439C89.0661 25.753 88.8491 25.221 88.4151 24.843C87.9951 24.465 87.3511 24.276 86.4831 24.276H82.3251L84.1731 22.365V30.492Z" fill="#803A6A"/>
<path d="M61.7422 35.7L68.2312 21H72.3262L78.8362 35.7H74.5102L69.4282 23.037H71.0662L65.9842 35.7H61.7422ZM65.2912 32.844L66.3622 29.778H73.5442L74.6152 32.844H65.2912Z" fill="#803A6A"/>
<path d="M43.4702 35.7V21H46.8932L52.9832 30.996H51.1772L57.0992 21H60.5222L60.5642 35.7H56.7422L56.7002 26.817H57.3512L52.9202 34.251H51.0722L46.5152 26.817H47.3132V35.7H43.4702Z" fill="#EB8B27"/>
<g clip-path="url(#clip0_7_1358)">
<rect x="28.6738" y="14.0989" width="5.47529" height="21.9011" fill="url(#paint0_linear_7_1358)"/>
<rect x="20.1875" y="19.5742" width="5.74905" height="16.4259" fill="url(#paint1_linear_7_1358)"/>
<rect x="11.9741" y="25.0493" width="5.74905" height="10.9506" fill="url(#paint2_linear_7_1358)"/>
<rect x="3.76172" y="28.8823" width="5.74905" height="7.11787" fill="url(#paint3_linear_7_1358)"/>
<path d="M29.4951 12.5932L25.7993 9.58175L29.4951 4.51711L27.7157 3.14829L35.9286 0L34.9704 8.89734L33.191 7.39163L29.4951 12.5932Z" fill="#803A6A"/>
<path d="M27.442 10.2661C22.3774 16.0152 14.9857 22.3117 0.75 23.2699C16.1903 24.4745 25.8907 15.8327 28.8108 11.3612L27.442 10.2661Z" fill="#803A6A"/>
</g>
<defs>
<linearGradient id="paint0_linear_7_1358" x1="29.9729" y1="31.6323" x2="35.7313" y2="30.279" gradientUnits="userSpaceOnUse">
<stop stop-color="#DF286A"/>
<stop offset="0.0001" stop-color="#DF286A"/>
<stop offset="0.479167" stop-color="#E3484D"/>
<stop offset="0.479267" stop-color="#E3484D"/>
<stop offset="1" stop-color="#E86A2D"/>
</linearGradient>
<linearGradient id="paint1_linear_7_1358" x1="21.5515" y1="32.7243" x2="27.3086" y2="30.8302" gradientUnits="userSpaceOnUse">
<stop stop-color="#DF286A"/>
<stop offset="0.0001" stop-color="#DF286A"/>
<stop offset="0.479167" stop-color="#E3484D"/>
<stop offset="0.479267" stop-color="#E3484D"/>
<stop offset="1" stop-color="#E86A2D"/>
</linearGradient>
<linearGradient id="paint2_linear_7_1358" x1="13.3381" y1="33.816" x2="18.4688" y2="31.284" gradientUnits="userSpaceOnUse">
<stop stop-color="#DF286A"/>
<stop offset="0.0001" stop-color="#DF286A"/>
<stop offset="0.479167" stop-color="#E3484D"/>
<stop offset="0.479267" stop-color="#E3484D"/>
<stop offset="1" stop-color="#E86A2D"/>
</linearGradient>
<linearGradient id="paint3_linear_7_1358" x1="5.12571" y1="34.5807" x2="9.1729" y2="31.5078" gradientUnits="userSpaceOnUse">
<stop stop-color="#DF286A"/>
<stop offset="0.0001" stop-color="#DF286A"/>
<stop offset="0.479167" stop-color="#E3484D"/>
<stop offset="0.479267" stop-color="#E3484D"/>
<stop offset="1" stop-color="#E86A2D"/>
</linearGradient>
<clipPath id="clip0_7_1358">
<rect width="36" height="36" fill="white"/>
</clipPath>
</defs>
</svg>
