<svg width="128" height="15" viewBox="0 0 128 15" fill="none" xmlns="http://www.w3.org/2000/svg">
<mask id="path-1-outside-1_1_6545" maskUnits="userSpaceOnUse" x="0.49046" y="0.476074" width="128" height="14" fill="black">
<rect fill="white" x="0.49046" y="0.476074" width="128" height="14"/>
<path d="M4.3227 13.4281L1.49048 1.58807H3.93848L5.84264 9.94007L8.06648 1.58807H10.2425L12.4506 9.94007L14.3545 1.58807H16.8025L13.9707 13.4281H11.5547L9.15455 5.07607L6.7387 13.4281H4.3227Z"/>
<path d="M20.5758 13.5081C20.3198 13.5081 20.0265 13.4814 19.6958 13.4281C19.3652 13.3854 19.0452 13.2787 18.7358 13.1081C18.4371 12.9374 18.1865 12.6814 17.9838 12.3401C17.7918 11.9881 17.6958 11.5081 17.6958 10.9001L17.6957 4.29207C17.6956 3.76941 17.7756 3.33207 17.9356 2.98007C18.0956 2.62807 18.309 2.35074 18.5756 2.14807C18.8423 1.94541 19.1356 1.80141 19.4556 1.71607C19.7756 1.63074 20.0903 1.58807 20.3996 1.58807C21.1996 1.58807 21.9036 1.59874 22.5116 1.62007C23.1303 1.64141 23.6849 1.66807 24.1756 1.70007C24.6663 1.72141 25.1143 1.75341 25.5196 1.79607L25.5196 3.78007H21.1036C20.773 3.78007 20.517 3.86007 20.3357 4.02007C20.1543 4.18007 20.0637 4.42541 20.0637 4.75607L20.0637 6.46807L24.7517 6.59607L24.7517 8.46807L20.0637 8.59607L20.0638 10.2281C20.0638 10.5054 20.1064 10.7241 20.1918 10.8841C20.2878 11.0334 20.4104 11.1401 20.5598 11.2041C20.7198 11.2574 20.8851 11.2841 21.0558 11.2841H25.5198L25.5198 13.2681C25.0505 13.3214 24.5278 13.3641 23.9518 13.3961C23.3865 13.4281 22.8105 13.4547 22.2238 13.4761C21.6478 13.4974 21.0985 13.5081 20.5758 13.5081Z"/>
<path d="M31.3677 13.4281L31.3675 1.58807H36.0235C37.1968 1.58807 38.0502 1.86007 38.5835 2.40407C39.1275 2.93741 39.3995 3.70007 39.3995 4.69207C39.3995 5.16141 39.3302 5.57741 39.1916 5.94007C39.0636 6.29207 38.8769 6.58541 38.6316 6.82008C38.3862 7.04408 38.0929 7.19874 37.7516 7.28407C38.0076 7.34807 38.2529 7.44941 38.4876 7.58807C38.7329 7.72674 38.9516 7.91341 39.1436 8.14807C39.3463 8.38274 39.5009 8.67074 39.6076 9.01207C39.725 9.34274 39.7836 9.72674 39.7836 10.1641C39.7837 10.9641 39.645 11.6041 39.3677 12.0841C39.101 12.5641 38.701 12.9107 38.1677 13.1241C37.645 13.3267 36.9997 13.4281 36.2317 13.4281H31.3677ZM33.7357 11.3001H36.1677C36.445 11.3001 36.685 11.2467 36.8877 11.1401C37.0903 11.0334 37.245 10.8681 37.3516 10.6441C37.469 10.4201 37.5276 10.1214 37.5276 9.74807C37.5276 9.43874 37.469 9.17741 37.3516 8.96407C37.2343 8.75074 37.0743 8.58541 36.8716 8.46807C36.6689 8.35074 36.4343 8.29208 36.1676 8.29208H33.7356L33.7357 11.3001ZM33.7356 6.46807H36.0396C36.3809 6.46807 36.6476 6.34541 36.8396 6.10007C37.0422 5.84407 37.1436 5.51341 37.1435 5.10807C37.1542 4.58541 37.0475 4.22274 36.8235 4.02007C36.5995 3.81741 36.3275 3.71607 36.0075 3.71607H33.7355L33.7356 6.46807Z"/>
<path d="M45.863 13.5081C45.2123 13.5081 44.6043 13.4547 44.039 13.3481C43.4736 13.2307 42.9776 13.0334 42.5509 12.7561C42.1349 12.4681 41.8096 12.0734 41.5749 11.5721C41.3509 11.0601 41.2389 10.4094 41.2389 9.62007L41.2387 1.58807H43.6067L43.6069 9.60407C43.6069 10.0414 43.6922 10.3881 43.8629 10.6441C44.0442 10.9001 44.3002 11.0867 44.6309 11.2041C44.9722 11.3214 45.3829 11.3801 45.8629 11.3801C46.3322 11.3801 46.7322 11.3214 47.0629 11.2041C47.4042 11.0867 47.6602 10.9001 47.8309 10.6441C48.0122 10.3881 48.1029 10.0414 48.1029 9.60407L48.1027 1.58807H50.4867L50.4869 9.62007C50.4869 10.4094 50.3696 11.0601 50.1349 11.5721C49.9003 12.0734 49.5749 12.4681 49.1589 12.7561C48.7429 13.0334 48.2523 13.2307 47.6869 13.3481C47.1323 13.4547 46.5243 13.5081 45.863 13.5081Z"/>
<path d="M55.1837 13.4281L55.1836 9.84408L51.6155 1.58807H54.0795L56.4156 7.42807L58.7355 1.58807H61.1035L57.5516 9.84408L57.5517 13.4281H55.1837Z"/>
<path d="M69.0196 13.4281L69.0194 3.71607H65.7714L65.7713 1.58807H74.6514L74.6514 3.71607H71.3874L71.3876 13.4281H69.0196Z"/>
<path d="M75.9302 13.4281L75.93 1.58807H80.826C81.2953 1.58807 81.7326 1.64674 82.138 1.76407C82.5433 1.87074 82.9007 2.06274 83.21 2.34007C83.5193 2.61741 83.7593 3.00141 83.93 3.49207C84.1114 3.98274 84.202 4.61207 84.202 5.38007C84.2021 5.92407 84.1487 6.38807 84.0421 6.77207C83.9354 7.15607 83.7914 7.47074 83.6101 7.71607C83.4394 7.96141 83.2421 8.15874 83.0181 8.30807C82.7941 8.45741 82.5648 8.58007 82.3301 8.67607L84.5382 13.4281H82.1222L80.2181 9.04407C80.0901 9.04407 79.9408 9.04407 79.7701 9.04407C79.6101 9.03341 79.4448 9.02808 79.2741 9.02808C79.1034 9.02808 78.9328 9.02808 78.7621 9.02808C78.5914 9.02808 78.4368 9.02274 78.2981 9.01207L78.2982 13.4281H75.9302ZM78.2981 7.14007H80.4101C80.6234 7.14007 80.8154 7.11341 80.9861 7.06007C81.1567 7.00674 81.3061 6.91607 81.4341 6.78807C81.5621 6.64941 81.6581 6.46807 81.7221 6.24407C81.7967 6.02007 81.8341 5.73207 81.834 5.38007C81.834 5.04941 81.7967 4.77741 81.722 4.56407C81.658 4.34007 81.562 4.16941 81.434 4.05207C81.306 3.92407 81.1567 3.83874 80.986 3.79607C80.8153 3.74274 80.6233 3.71607 80.41 3.71607H78.298L78.2981 7.14007Z"/>
<path d="M85.2094 13.4281L88.9212 1.58807H91.9132L95.6255 13.4281H93.1614L92.4094 10.9481H88.3774L87.6414 13.4281H85.2094ZM88.9374 8.82008H91.8494L90.3933 3.62007L88.9374 8.82008Z"/>
<path d="M96.6021 13.4281L96.6019 4.29207C96.6019 3.76941 96.6819 3.33207 96.8419 2.98007C97.0019 2.62807 97.2152 2.35074 97.4819 2.14807C97.7485 1.94541 98.0419 1.80141 98.3619 1.71607C98.6818 1.63074 98.9965 1.58807 99.3058 1.58807C99.6899 1.58807 100.165 1.59341 100.73 1.60407C101.306 1.60407 101.914 1.62007 102.554 1.65207C103.205 1.68407 103.829 1.73207 104.426 1.79607L104.426 3.78007H99.9619C99.6312 3.78007 99.3806 3.87074 99.2099 4.05207C99.0499 4.22274 98.9699 4.45207 98.9699 4.74007L98.9699 6.75607L103.658 6.88407L103.658 8.75607L98.97 8.88407L98.9701 13.4281H96.6021Z"/>
<path d="M105.774 13.4281L105.774 4.29207C105.774 3.76941 105.854 3.33207 106.014 2.98007C106.174 2.62807 106.387 2.35074 106.654 2.14807C106.92 1.94541 107.214 1.80141 107.534 1.71607C107.854 1.63074 108.168 1.58807 108.478 1.58807C108.862 1.58807 109.336 1.59341 109.902 1.60407C110.478 1.60407 111.086 1.62007 111.726 1.65207C112.376 1.68407 113 1.73207 113.598 1.79607L113.598 3.78007H109.134C108.803 3.78007 108.552 3.87074 108.382 4.05207C108.222 4.22274 108.142 4.45207 108.142 4.74007L108.142 6.75607L112.83 6.88407L112.83 8.75607L108.142 8.88407L108.142 13.4281H105.774Z"/>
<path d="M115.102 13.4281L115.102 1.58807H117.47L117.47 13.4281H115.102Z"/>
<path d="M123.508 13.5241C122.815 13.5241 122.201 13.4441 121.668 13.2841C121.145 13.1241 120.697 12.8307 120.324 12.4041C119.961 11.9774 119.684 11.3694 119.492 10.5801C119.311 9.78008 119.22 8.74541 119.22 7.47608C119.22 6.24941 119.316 5.24674 119.508 4.46807C119.71 3.67874 119.998 3.07074 120.372 2.64407C120.745 2.20674 121.198 1.90274 121.732 1.73207C122.265 1.56141 122.868 1.47607 123.54 1.47607C124.073 1.47607 124.569 1.50807 125.028 1.57207C125.497 1.62541 125.918 1.69474 126.292 1.78007C126.665 1.85474 126.98 1.94007 127.236 2.03607L127.236 3.87607C127.044 3.83341 126.782 3.79074 126.452 3.74807C126.132 3.70541 125.764 3.67341 125.348 3.65207C124.932 3.62007 124.494 3.60407 124.036 3.60407C123.588 3.60407 123.204 3.65741 122.884 3.76407C122.574 3.86007 122.324 4.04674 122.132 4.32407C121.95 4.59074 121.812 4.98007 121.716 5.49207C121.63 6.00407 121.588 6.67074 121.588 7.49207C121.588 8.28141 121.625 8.93207 121.7 9.44407C121.785 9.95607 121.919 10.3561 122.1 10.6441C122.281 10.9214 122.527 11.1187 122.836 11.2361C123.156 11.3427 123.556 11.3961 124.036 11.3961C124.847 11.3961 125.503 11.3801 126.004 11.3481C126.516 11.3161 126.927 11.2787 127.236 11.2361L127.236 13.0601C126.948 13.1561 126.617 13.2414 126.244 13.3161C125.871 13.3801 125.46 13.4281 125.012 13.4601C124.564 13.5027 124.063 13.5241 123.508 13.5241Z"/>
</mask>
<path d="M4.3227 13.4281L1.49048 1.58807H3.93848L5.84264 9.94007L8.06648 1.58807H10.2425L12.4506 9.94007L14.3545 1.58807H16.8025L13.9707 13.4281H11.5547L9.15455 5.07607L6.7387 13.4281H4.3227Z" stroke="white" stroke-width="1.5" mask="url(#path-1-outside-1_1_6545)"/>
<path d="M20.5758 13.5081C20.3198 13.5081 20.0265 13.4814 19.6958 13.4281C19.3652 13.3854 19.0452 13.2787 18.7358 13.1081C18.4371 12.9374 18.1865 12.6814 17.9838 12.3401C17.7918 11.9881 17.6958 11.5081 17.6958 10.9001L17.6957 4.29207C17.6956 3.76941 17.7756 3.33207 17.9356 2.98007C18.0956 2.62807 18.309 2.35074 18.5756 2.14807C18.8423 1.94541 19.1356 1.80141 19.4556 1.71607C19.7756 1.63074 20.0903 1.58807 20.3996 1.58807C21.1996 1.58807 21.9036 1.59874 22.5116 1.62007C23.1303 1.64141 23.6849 1.66807 24.1756 1.70007C24.6663 1.72141 25.1143 1.75341 25.5196 1.79607L25.5196 3.78007H21.1036C20.773 3.78007 20.517 3.86007 20.3357 4.02007C20.1543 4.18007 20.0637 4.42541 20.0637 4.75607L20.0637 6.46807L24.7517 6.59607L24.7517 8.46807L20.0637 8.59607L20.0638 10.2281C20.0638 10.5054 20.1064 10.7241 20.1918 10.8841C20.2878 11.0334 20.4104 11.1401 20.5598 11.2041C20.7198 11.2574 20.8851 11.2841 21.0558 11.2841H25.5198L25.5198 13.2681C25.0505 13.3214 24.5278 13.3641 23.9518 13.3961C23.3865 13.4281 22.8105 13.4547 22.2238 13.4761C21.6478 13.4974 21.0985 13.5081 20.5758 13.5081Z" stroke="white" stroke-width="1.5" mask="url(#path-1-outside-1_1_6545)"/>
<path d="M31.3677 13.4281L31.3675 1.58807H36.0235C37.1968 1.58807 38.0502 1.86007 38.5835 2.40407C39.1275 2.93741 39.3995 3.70007 39.3995 4.69207C39.3995 5.16141 39.3302 5.57741 39.1916 5.94007C39.0636 6.29207 38.8769 6.58541 38.6316 6.82008C38.3862 7.04408 38.0929 7.19874 37.7516 7.28407C38.0076 7.34807 38.2529 7.44941 38.4876 7.58807C38.7329 7.72674 38.9516 7.91341 39.1436 8.14807C39.3463 8.38274 39.5009 8.67074 39.6076 9.01207C39.725 9.34274 39.7836 9.72674 39.7836 10.1641C39.7837 10.9641 39.645 11.6041 39.3677 12.0841C39.101 12.5641 38.701 12.9107 38.1677 13.1241C37.645 13.3267 36.9997 13.4281 36.2317 13.4281H31.3677ZM33.7357 11.3001H36.1677C36.445 11.3001 36.685 11.2467 36.8877 11.1401C37.0903 11.0334 37.245 10.8681 37.3516 10.6441C37.469 10.4201 37.5276 10.1214 37.5276 9.74807C37.5276 9.43874 37.469 9.17741 37.3516 8.96407C37.2343 8.75074 37.0743 8.58541 36.8716 8.46807C36.6689 8.35074 36.4343 8.29208 36.1676 8.29208H33.7356L33.7357 11.3001ZM33.7356 6.46807H36.0396C36.3809 6.46807 36.6476 6.34541 36.8396 6.10007C37.0422 5.84407 37.1436 5.51341 37.1435 5.10807C37.1542 4.58541 37.0475 4.22274 36.8235 4.02007C36.5995 3.81741 36.3275 3.71607 36.0075 3.71607H33.7355L33.7356 6.46807Z" stroke="white" stroke-width="1.5" mask="url(#path-1-outside-1_1_6545)"/>
<path d="M45.863 13.5081C45.2123 13.5081 44.6043 13.4547 44.039 13.3481C43.4736 13.2307 42.9776 13.0334 42.5509 12.7561C42.1349 12.4681 41.8096 12.0734 41.5749 11.5721C41.3509 11.0601 41.2389 10.4094 41.2389 9.62007L41.2387 1.58807H43.6067L43.6069 9.60407C43.6069 10.0414 43.6922 10.3881 43.8629 10.6441C44.0442 10.9001 44.3002 11.0867 44.6309 11.2041C44.9722 11.3214 45.3829 11.3801 45.8629 11.3801C46.3322 11.3801 46.7322 11.3214 47.0629 11.2041C47.4042 11.0867 47.6602 10.9001 47.8309 10.6441C48.0122 10.3881 48.1029 10.0414 48.1029 9.60407L48.1027 1.58807H50.4867L50.4869 9.62007C50.4869 10.4094 50.3696 11.0601 50.1349 11.5721C49.9003 12.0734 49.5749 12.4681 49.1589 12.7561C48.7429 13.0334 48.2523 13.2307 47.6869 13.3481C47.1323 13.4547 46.5243 13.5081 45.863 13.5081Z" stroke="white" stroke-width="1.5" mask="url(#path-1-outside-1_1_6545)"/>
<path d="M55.1837 13.4281L55.1836 9.84408L51.6155 1.58807H54.0795L56.4156 7.42807L58.7355 1.58807H61.1035L57.5516 9.84408L57.5517 13.4281H55.1837Z" stroke="white" stroke-width="1.5" mask="url(#path-1-outside-1_1_6545)"/>
<path d="M69.0196 13.4281L69.0194 3.71607H65.7714L65.7713 1.58807H74.6514L74.6514 3.71607H71.3874L71.3876 13.4281H69.0196Z" stroke="white" stroke-width="1.5" mask="url(#path-1-outside-1_1_6545)"/>
<path d="M75.9302 13.4281L75.93 1.58807H80.826C81.2953 1.58807 81.7326 1.64674 82.138 1.76407C82.5433 1.87074 82.9007 2.06274 83.21 2.34007C83.5193 2.61741 83.7593 3.00141 83.93 3.49207C84.1114 3.98274 84.202 4.61207 84.202 5.38007C84.2021 5.92407 84.1487 6.38807 84.0421 6.77207C83.9354 7.15607 83.7914 7.47074 83.6101 7.71607C83.4394 7.96141 83.2421 8.15874 83.0181 8.30807C82.7941 8.45741 82.5648 8.58007 82.3301 8.67607L84.5382 13.4281H82.1222L80.2181 9.04407C80.0901 9.04407 79.9408 9.04407 79.7701 9.04407C79.6101 9.03341 79.4448 9.02808 79.2741 9.02808C79.1034 9.02808 78.9328 9.02808 78.7621 9.02808C78.5914 9.02808 78.4368 9.02274 78.2981 9.01207L78.2982 13.4281H75.9302ZM78.2981 7.14007H80.4101C80.6234 7.14007 80.8154 7.11341 80.9861 7.06007C81.1567 7.00674 81.3061 6.91607 81.4341 6.78807C81.5621 6.64941 81.6581 6.46807 81.7221 6.24407C81.7967 6.02007 81.8341 5.73207 81.834 5.38007C81.834 5.04941 81.7967 4.77741 81.722 4.56407C81.658 4.34007 81.562 4.16941 81.434 4.05207C81.306 3.92407 81.1567 3.83874 80.986 3.79607C80.8153 3.74274 80.6233 3.71607 80.41 3.71607H78.298L78.2981 7.14007Z" stroke="white" stroke-width="1.5" mask="url(#path-1-outside-1_1_6545)"/>
<path d="M85.2094 13.4281L88.9212 1.58807H91.9132L95.6255 13.4281H93.1614L92.4094 10.9481H88.3774L87.6414 13.4281H85.2094ZM88.9374 8.82008H91.8494L90.3933 3.62007L88.9374 8.82008Z" stroke="white" stroke-width="1.5" mask="url(#path-1-outside-1_1_6545)"/>
<path d="M96.6021 13.4281L96.6019 4.29207C96.6019 3.76941 96.6819 3.33207 96.8419 2.98007C97.0019 2.62807 97.2152 2.35074 97.4819 2.14807C97.7485 1.94541 98.0419 1.80141 98.3619 1.71607C98.6818 1.63074 98.9965 1.58807 99.3058 1.58807C99.6899 1.58807 100.165 1.59341 100.73 1.60407C101.306 1.60407 101.914 1.62007 102.554 1.65207C103.205 1.68407 103.829 1.73207 104.426 1.79607L104.426 3.78007H99.9619C99.6312 3.78007 99.3806 3.87074 99.2099 4.05207C99.0499 4.22274 98.9699 4.45207 98.9699 4.74007L98.9699 6.75607L103.658 6.88407L103.658 8.75607L98.97 8.88407L98.9701 13.4281H96.6021Z" stroke="white" stroke-width="1.5" mask="url(#path-1-outside-1_1_6545)"/>
<path d="M105.774 13.4281L105.774 4.29207C105.774 3.76941 105.854 3.33207 106.014 2.98007C106.174 2.62807 106.387 2.35074 106.654 2.14807C106.92 1.94541 107.214 1.80141 107.534 1.71607C107.854 1.63074 108.168 1.58807 108.478 1.58807C108.862 1.58807 109.336 1.59341 109.902 1.60407C110.478 1.60407 111.086 1.62007 111.726 1.65207C112.376 1.68407 113 1.73207 113.598 1.79607L113.598 3.78007H109.134C108.803 3.78007 108.552 3.87074 108.382 4.05207C108.222 4.22274 108.142 4.45207 108.142 4.74007L108.142 6.75607L112.83 6.88407L112.83 8.75607L108.142 8.88407L108.142 13.4281H105.774Z" stroke="white" stroke-width="1.5" mask="url(#path-1-outside-1_1_6545)"/>
<path d="M115.102 13.4281L115.102 1.58807H117.47L117.47 13.4281H115.102Z" stroke="white" stroke-width="1.5" mask="url(#path-1-outside-1_1_6545)"/>
<path d="M123.508 13.5241C122.815 13.5241 122.201 13.4441 121.668 13.2841C121.145 13.1241 120.697 12.8307 120.324 12.4041C119.961 11.9774 119.684 11.3694 119.492 10.5801C119.311 9.78008 119.22 8.74541 119.22 7.47608C119.22 6.24941 119.316 5.24674 119.508 4.46807C119.71 3.67874 119.998 3.07074 120.372 2.64407C120.745 2.20674 121.198 1.90274 121.732 1.73207C122.265 1.56141 122.868 1.47607 123.54 1.47607C124.073 1.47607 124.569 1.50807 125.028 1.57207C125.497 1.62541 125.918 1.69474 126.292 1.78007C126.665 1.85474 126.98 1.94007 127.236 2.03607L127.236 3.87607C127.044 3.83341 126.782 3.79074 126.452 3.74807C126.132 3.70541 125.764 3.67341 125.348 3.65207C124.932 3.62007 124.494 3.60407 124.036 3.60407C123.588 3.60407 123.204 3.65741 122.884 3.76407C122.574 3.86007 122.324 4.04674 122.132 4.32407C121.95 4.59074 121.812 4.98007 121.716 5.49207C121.63 6.00407 121.588 6.67074 121.588 7.49207C121.588 8.28141 121.625 8.93207 121.7 9.44407C121.785 9.95607 121.919 10.3561 122.1 10.6441C122.281 10.9214 122.527 11.1187 122.836 11.2361C123.156 11.3427 123.556 11.3961 124.036 11.3961C124.847 11.3961 125.503 11.3801 126.004 11.3481C126.516 11.3161 126.927 11.2787 127.236 11.2361L127.236 13.0601C126.948 13.1561 126.617 13.2414 126.244 13.3161C125.871 13.3801 125.46 13.4281 125.012 13.4601C124.564 13.5027 124.063 13.5241 123.508 13.5241Z" stroke="white" stroke-width="1.5" mask="url(#path-1-outside-1_1_6545)"/>
</svg>
